<svg width="650" height="423" viewBox="0 0 650 423" fill="none" xmlns="http://www.w3.org/2000/svg">
<g opacity="0.4">
<path d="M220.522 414.319C334.777 414.319 427.4 321.697 427.4 207.441C427.4 93.185 334.777 0.562988 220.522 0.562988C106.266 0.562988 13.644 93.185 13.644 207.441C13.644 321.697 106.266 414.319 220.522 414.319Z" fill="#D9EBFF"/>
<path d="M273.95 353.094H227.627V399.417H273.95V353.094Z" fill="#A9C0FF"/>
<path d="M544.964 203.578C597.432 203.578 639.966 161.044 639.966 108.576C639.966 56.108 597.432 13.574 544.964 13.574C492.496 13.574 449.962 56.108 449.962 108.576C449.962 161.044 492.496 203.578 544.964 203.578Z" fill="#D9EBFF"/>
<g opacity="0.28">
<path d="M600.707 140.08H552.412C550.755 140.08 549.412 141.423 549.412 143.08V216.967C549.412 218.624 550.755 219.967 552.412 219.967H600.707C602.364 219.967 603.707 218.624 603.707 216.967V143.08C603.707 141.423 602.364 140.08 600.707 140.08Z" fill="#6299E8"/>
</g>
<g opacity="0.19">
<path d="M567.001 347.051L559.713 386.074C558.196 394.188 554.339 401.683 548.617 407.634C542.896 413.585 535.559 417.734 527.511 419.569C524.426 420.278 521.27 420.633 518.105 420.628C516.155 420.627 514.207 420.494 512.275 420.229C510.807 420.028 509.352 419.744 507.917 419.377C504.809 418.612 501.801 417.491 498.951 416.035C493.159 413.101 488.12 408.872 484.227 403.676C480.333 398.48 477.688 392.457 476.497 386.074L469.209 347.051H567.001Z" fill="#AAAAAA"/>
</g>
<path d="M600.125 392.821H542.209C538.662 392.817 535.261 391.406 532.752 388.898C530.244 386.389 528.833 382.988 528.829 379.441V370.531C528.833 366.983 530.244 363.582 532.752 361.074C535.261 358.566 538.662 357.155 542.209 357.151H600.125C603.672 357.155 607.073 358.566 609.582 361.074C612.09 363.582 613.501 366.983 613.505 370.531V379.441C613.501 382.988 612.09 386.389 609.582 388.898C607.073 391.406 603.672 392.817 600.125 392.821ZM542.209 360.151C539.457 360.154 536.819 361.249 534.873 363.194C532.927 365.14 531.832 367.779 531.829 370.531V379.441C531.832 382.193 532.927 384.831 534.873 386.777C536.819 388.723 539.457 389.818 542.209 389.821H600.125C602.877 389.818 605.515 388.723 607.461 386.777C609.407 384.831 610.502 382.193 610.505 379.441V370.531C610.502 367.779 609.407 365.14 607.461 363.194C605.515 361.249 602.877 360.154 600.125 360.151H542.209Z" fill="#4D76B8"/>
<path d="M586.154 341.491L578.867 380.513C577.35 388.628 573.493 396.122 567.771 402.073C562.05 408.025 554.713 412.173 546.664 414.009C543.58 414.718 540.424 415.073 537.259 415.068C535.309 415.067 533.361 414.933 531.429 414.669C529.961 414.468 528.506 414.183 527.07 413.816C523.963 413.052 520.955 411.93 518.105 410.475C512.313 407.54 507.274 403.311 503.38 398.115C499.486 392.919 496.842 386.896 495.651 380.513L488.363 341.491H586.154Z" fill="#D9EBFF"/>
<path d="M506.893 402.211C510.836 406.278 515.555 409.511 520.772 411.72C525.988 413.928 531.594 415.066 537.259 415.066C542.923 415.066 548.53 413.928 553.746 411.72C558.962 409.511 563.682 406.278 567.625 402.211H506.893Z" fill="#4D76B8"/>
<path d="M489.536 347.761H584.983L586.155 341.491H488.364L489.536 347.761Z" fill="#4D76B8"/>
<g opacity="0.5">
<path d="M540.641 341.491C542.014 366.341 537.358 391.154 527.07 413.816C525.512 413.433 523.977 412.96 522.474 412.398C520.982 411.84 519.524 411.198 518.105 410.475C529.472 389.38 533.999 365.272 531.058 341.491H540.641Z" fill="white"/>
</g>
<g opacity="0.5">
<path d="M560.277 341.491C560.782 366.343 556.147 391.031 546.664 414.009C543.578 414.711 540.424 415.066 537.259 415.067C535.309 415.067 533.361 414.933 531.429 414.669C541.038 391.494 545.712 366.572 545.152 341.491H560.277Z" fill="white"/>
</g>
<path d="M57.722 278.011H16.127V280.011H57.722V278.011Z" fill="#A9C0FF"/>
<path d="M56.209 265.742H14.614V267.742H56.209V265.742Z" fill="#A9C0FF"/>
<path d="M59.16 291.343H17.565V293.343H59.16V291.343Z" fill="#A9C0FF"/>
<path d="M359.772 67.938H318.177V69.938H359.772V67.938Z" fill="#A9C0FF"/>
<path d="M358.259 55.67H316.664V57.67H358.259V55.67Z" fill="#A9C0FF"/>
<path d="M361.21 81.271H319.615V83.271H361.21V81.271Z" fill="#A9C0FF"/>
<path d="M515.099 267.363C515.252 268.583 515.127 269.821 514.734 270.986C514.278 272.139 513.653 273.218 512.879 274.187C512.17 275.05 511.592 276.013 511.163 277.045C510.456 279.029 510.555 281.211 511.44 283.122C511.952 284.068 512.597 284.937 513.354 285.701C514.265 286.65 515.024 287.733 515.606 288.912C516.17 290.176 516.462 291.545 516.461 292.93C516.46 294.314 516.168 295.683 515.602 296.947C515.019 298.125 514.26 299.207 513.352 300.157C512.595 300.922 511.952 301.79 511.44 302.736C511.009 303.672 510.761 304.683 510.71 305.712C510.656 306.765 510.812 307.819 511.169 308.811C511.596 309.843 512.174 310.806 512.883 311.67C513.657 312.639 514.281 313.718 514.737 314.872C515.129 316.037 515.253 317.276 515.099 318.496C514.966 317.335 514.609 316.21 514.048 315.184C513.444 314.206 512.71 313.316 511.864 312.538C510.944 311.664 510.161 310.657 509.541 309.549C508.952 308.353 508.625 307.045 508.583 305.713C508.515 304.359 508.747 303.006 509.264 301.752C509.811 300.566 510.526 299.464 511.388 298.482C512.104 297.691 512.706 296.804 513.176 295.846C513.921 293.972 513.923 291.884 513.181 290.009C512.71 289.052 512.11 288.165 511.396 287.372C510.534 286.391 509.818 285.291 509.27 284.106C508.753 282.853 508.519 281.5 508.587 280.146C508.628 278.814 508.954 277.506 509.543 276.311C510.162 275.203 510.945 274.196 511.866 273.322C512.711 272.544 513.446 271.654 514.049 270.676C514.61 269.65 514.967 268.525 515.099 267.363ZM543.602 244.979C543.755 246.199 543.63 247.437 543.237 248.602C542.781 249.755 542.156 250.834 541.382 251.802C540.673 252.666 540.095 253.629 539.667 254.661C538.959 256.644 539.058 258.826 539.943 260.738C540.455 261.684 541.1 262.553 541.857 263.317C542.768 264.266 543.527 265.349 544.109 266.528C544.673 267.792 544.965 269.161 544.964 270.546C544.964 271.93 544.671 273.299 544.106 274.563C543.522 275.74 542.763 276.823 541.855 277.773C541.098 278.538 540.455 279.406 539.943 280.352C539.062 282.264 538.964 284.445 539.672 286.427C540.1 287.459 540.677 288.422 541.386 289.286C542.16 290.255 542.784 291.334 543.24 292.488C543.632 293.653 543.756 294.892 543.602 296.112C543.469 294.95 543.112 293.826 542.551 292.8C541.948 291.822 541.213 290.932 540.367 290.154C539.447 289.28 538.664 288.272 538.044 287.165C537.455 285.969 537.128 284.661 537.086 283.329C537.018 281.974 537.25 280.622 537.767 279.368C538.314 278.182 539.03 277.08 539.891 276.098C540.607 275.307 541.209 274.419 541.679 273.462C542.424 271.588 542.426 269.5 541.684 267.625C541.213 266.668 540.613 265.78 539.899 264.988C539.038 264.007 538.322 262.907 537.773 261.722C537.256 260.469 537.022 259.116 537.09 257.762C537.131 256.43 537.457 255.122 538.046 253.927C538.665 252.819 539.448 251.812 540.369 250.938C541.214 250.16 541.949 249.27 542.552 248.292C543.113 247.266 543.47 246.141 543.602 244.979ZM565.634 274.563C565.802 275.901 565.665 277.26 565.233 278.538C564.733 279.804 564.047 280.988 563.198 282.051C562.42 282.998 561.786 284.055 561.316 285.188C560.539 287.364 560.648 289.759 561.619 291.856C562.181 292.895 562.888 293.848 563.72 294.687C564.719 295.728 565.553 296.916 566.191 298.211C566.81 299.598 567.13 301.1 567.129 302.62C567.129 304.139 566.808 305.641 566.187 307.028C565.547 308.32 564.714 309.508 563.717 310.551C562.887 311.39 562.18 312.343 561.62 313.381C560.652 315.479 560.545 317.872 561.321 320.048C561.79 321.18 562.424 322.237 563.202 323.185C564.051 324.248 564.737 325.433 565.236 326.699C565.667 327.978 565.803 329.337 565.634 330.676C565.488 329.401 565.096 328.167 564.481 327.041C563.819 325.968 563.013 324.991 562.085 324.138C561.075 323.179 560.215 322.073 559.535 320.857C558.888 319.545 558.529 318.11 558.484 316.648C558.409 315.161 558.664 313.677 559.231 312.301C559.832 311 560.616 309.791 561.561 308.713C562.347 307.844 563.008 306.871 563.524 305.82C564.342 303.763 564.344 301.472 563.53 299.414C563.013 298.364 562.354 297.39 561.571 296.521C560.625 295.444 559.839 294.237 559.238 292.936C558.67 291.561 558.414 290.077 558.487 288.591C558.533 287.129 558.891 285.694 559.538 284.382C560.217 283.167 561.076 282.061 562.086 281.102C563.014 280.248 563.82 279.271 564.482 278.198C565.098 277.072 565.489 275.838 565.634 274.563Z" fill="#D9EBFF"/>
<path d="M649.867 413.816H11.947V422.816H649.867V413.816Z" fill="#456BA3"/>
<path d="M250.374 83.977C270.117 83.977 286.122 67.972 286.122 48.229C286.122 28.486 270.117 12.481 250.374 12.481C230.631 12.481 214.626 28.486 214.626 48.229C214.626 67.972 230.631 83.977 250.374 83.977Z" fill="white"/>
<path d="M254.293 71.711C254.293 74.106 252.254 75.359 250.239 75.359C248.224 75.359 246.185 74.106 246.185 71.711C246.185 71.618 246.203 71.527 246.239 71.441C246.274 71.356 246.326 71.279 246.391 71.213C246.456 71.148 246.534 71.096 246.619 71.061C246.705 71.025 246.796 71.007 246.888 71.007H253.59C253.682 71.007 253.774 71.025 253.859 71.061C253.944 71.096 254.022 71.148 254.087 71.213C254.152 71.279 254.204 71.356 254.24 71.441C254.275 71.527 254.293 71.618 254.293 71.711Z" fill="#92B1EF"/>
<path d="M257.608 63.507V68.493C257.607 69.502 257.206 70.469 256.493 71.183C255.78 71.896 254.812 72.297 253.804 72.297H246.675C245.666 72.297 244.699 71.896 243.986 71.183C243.272 70.469 242.871 69.502 242.871 68.493V63.507C242.871 63.401 242.892 63.296 242.932 63.198C242.973 63.1 243.033 63.01 243.108 62.935C243.183 62.86 243.272 62.801 243.37 62.76C243.468 62.719 243.574 62.698 243.68 62.698H256.799C256.905 62.698 257.01 62.719 257.108 62.76C257.206 62.801 257.296 62.86 257.371 62.935C257.446 63.01 257.505 63.1 257.546 63.198C257.587 63.296 257.608 63.401 257.608 63.507Z" fill="#4D76B8"/>
<path d="M264.784 45.739C264.795 49.539 263.308 53.191 260.644 55.902C259.773 57.217 259.273 58.742 259.198 60.317C259.198 63.532 257.139 64.247 257.051 64.275C256.97 64.303 256.884 64.317 256.799 64.317H243.896C243.78 64.316 243.667 64.292 243.562 64.244C243.092 64.028 241.561 63.119 241.561 60.345V60.165C241.561 58.547 241.561 57.792 240.547 56.59C238.736 54.973 237.358 52.929 236.539 50.644C235.72 48.358 235.485 45.904 235.857 43.505C236.229 41.106 237.196 38.839 238.669 36.909C240.141 34.979 242.074 33.448 244.29 32.456C246.505 31.464 248.934 31.042 251.355 31.229C253.775 31.416 256.11 32.205 258.148 33.526C260.185 34.846 261.859 36.655 263.019 38.789C264.178 40.922 264.784 43.311 264.784 45.739ZM273.905 46.387H267.656C267.55 46.387 267.444 46.366 267.346 46.326C267.248 46.285 267.159 46.226 267.084 46.15C267.009 46.075 266.949 45.986 266.908 45.888C266.868 45.79 266.847 45.685 266.847 45.578C266.847 45.472 266.868 45.367 266.908 45.269C266.949 45.17 267.009 45.081 267.084 45.006C267.159 44.931 267.248 44.871 267.346 44.831C267.444 44.79 267.55 44.769 267.656 44.769H273.905C274.12 44.769 274.326 44.854 274.478 45.006C274.629 45.158 274.714 45.364 274.714 45.578C274.714 45.793 274.629 45.999 274.478 46.15C274.326 46.302 274.12 46.387 273.905 46.387ZM262.104 33.813C261.944 33.813 261.788 33.765 261.655 33.676C261.522 33.587 261.419 33.461 261.357 33.313C261.296 33.165 261.28 33.003 261.311 32.846C261.342 32.689 261.419 32.545 261.532 32.432L266.031 27.933C266.106 27.858 266.195 27.798 266.293 27.757C266.392 27.716 266.497 27.695 266.604 27.695C266.71 27.695 266.815 27.716 266.914 27.756C267.012 27.797 267.101 27.857 267.177 27.932C267.252 28.007 267.312 28.097 267.352 28.195C267.393 28.293 267.414 28.399 267.414 28.505C267.414 28.612 267.392 28.717 267.352 28.815C267.311 28.914 267.251 29.003 267.175 29.078L262.673 33.575C262.522 33.727 262.318 33.812 262.104 33.813ZM233.092 46.387H226.843C226.628 46.387 226.422 46.302 226.271 46.15C226.119 45.999 226.034 45.793 226.034 45.578C226.034 45.364 226.119 45.158 226.271 45.006C226.422 44.854 226.628 44.769 226.843 44.769H233.092C233.307 44.769 233.513 44.854 233.665 45.006C233.816 45.158 233.902 45.364 233.902 45.578C233.902 45.793 233.816 45.999 233.665 46.15C233.513 46.302 233.307 46.387 233.092 46.387ZM238.644 33.813C238.538 33.813 238.433 33.792 238.334 33.751C238.236 33.71 238.147 33.651 238.072 33.575L233.574 29.077C233.422 28.925 233.337 28.719 233.337 28.504C233.337 28.29 233.422 28.084 233.574 27.932C233.725 27.78 233.931 27.695 234.146 27.695C234.361 27.695 234.566 27.78 234.718 27.932L239.217 32.431C239.33 32.544 239.407 32.688 239.438 32.845C239.469 33.002 239.453 33.164 239.392 33.312C239.331 33.46 239.227 33.586 239.094 33.675C238.962 33.764 238.805 33.812 238.645 33.812L238.644 33.813ZM250.513 28.967C250.299 28.967 250.093 28.881 249.941 28.73C249.789 28.578 249.704 28.372 249.704 28.158V21.908C249.704 21.801 249.724 21.696 249.765 21.597C249.805 21.499 249.865 21.409 249.94 21.334C250.015 21.259 250.104 21.199 250.203 21.158C250.301 21.117 250.407 21.096 250.513 21.096C250.62 21.096 250.725 21.117 250.823 21.158C250.922 21.199 251.011 21.259 251.086 21.334C251.161 21.409 251.221 21.499 251.262 21.597C251.302 21.696 251.323 21.801 251.322 21.908V28.158C251.322 28.264 251.301 28.369 251.261 28.467C251.22 28.565 251.16 28.655 251.085 28.73C251.01 28.805 250.921 28.864 250.823 28.905C250.725 28.946 250.619 28.967 250.513 28.967Z" fill="#92B1EF"/>
<path d="M261.623 46.328C261.552 46.328 261.482 46.314 261.417 46.287C261.351 46.26 261.292 46.22 261.242 46.17C261.191 46.12 261.152 46.06 261.125 45.995C261.098 45.93 261.084 45.859 261.084 45.789C261.08 42.96 259.955 40.249 257.955 38.249C255.956 36.25 253.244 35.125 250.416 35.121C250.273 35.121 250.136 35.064 250.035 34.963C249.934 34.862 249.877 34.725 249.877 34.582C249.877 34.439 249.934 34.302 250.035 34.2C250.136 34.099 250.273 34.042 250.416 34.042C253.531 34.046 256.516 35.285 258.718 37.487C260.92 39.689 262.159 42.674 262.162 45.789C262.162 45.859 262.148 45.93 262.121 45.995C262.094 46.06 262.055 46.12 262.004 46.17C261.954 46.22 261.895 46.26 261.829 46.287C261.764 46.314 261.694 46.328 261.623 46.328Z" fill="#D9EBFF"/>
<path d="M250.374 85.477C243.007 85.477 235.805 83.292 229.68 79.2C223.555 75.107 218.781 69.289 215.961 62.483C213.142 55.677 212.404 48.188 213.842 40.962C215.279 33.737 218.826 27.1 224.036 21.891C229.245 16.681 235.882 13.134 243.107 11.697C250.333 10.26 257.822 10.997 264.628 13.816C271.434 16.636 277.252 21.41 281.345 27.535C285.437 33.661 287.622 40.862 287.622 48.229C287.611 58.104 283.683 67.572 276.7 74.555C269.717 81.538 260.249 85.466 250.374 85.477ZM250.374 13.981C243.6 13.981 236.979 15.99 231.347 19.753C225.715 23.516 221.325 28.865 218.733 35.123C216.141 41.381 215.463 48.267 216.784 54.91C218.106 61.554 221.367 67.656 226.157 72.446C230.947 77.236 237.049 80.497 243.693 81.819C250.336 83.14 257.222 82.462 263.48 79.87C269.738 77.278 275.087 72.888 278.85 67.256C282.613 61.624 284.622 55.003 284.622 48.229C284.612 39.149 281 30.444 274.58 24.023C268.159 17.603 259.454 13.991 250.374 13.981Z" fill="#4D76B8"/>
<path d="M227.627 396.416V356.094C227.627 355.298 227.311 354.535 226.748 353.972C226.186 353.41 225.423 353.094 224.627 353.094H216.227C215.431 353.094 214.668 353.41 214.106 353.972C213.543 354.535 213.227 355.298 213.227 356.094V410.816C213.227 411.612 213.543 412.375 214.106 412.938C214.668 413.5 215.431 413.816 216.227 413.816H270.95C271.746 413.816 272.509 413.5 273.071 412.938C273.634 412.375 273.95 411.612 273.95 410.816V402.416C273.95 401.621 273.634 400.858 273.071 400.295C272.509 399.732 271.746 399.416 270.95 399.416H230.627C230.233 399.416 229.843 399.339 229.479 399.188C229.115 399.037 228.784 398.816 228.506 398.538C228.227 398.259 228.006 397.928 227.855 397.564C227.705 397.2 227.627 396.81 227.627 396.416Z" fill="#6299E8"/>
<path d="M257.989 399.416V413.816H301.312C302.107 413.816 302.87 413.5 303.433 412.938C303.995 412.375 304.312 411.612 304.312 410.816V402.416C304.312 401.621 303.995 400.858 303.433 400.295C302.87 399.732 302.107 399.416 301.312 399.416H257.989Z" fill="#C2D5FF"/>
<path d="M359.719 160.23H105.319C102.005 160.23 99.319 162.916 99.319 166.23V347.093C99.319 350.407 102.005 353.093 105.319 353.093H359.719C363.033 353.093 365.719 350.407 365.719 347.093V166.23C365.719 162.916 363.033 160.23 359.719 160.23Z" fill="#6299E8"/>
<path d="M359.719 354.594H105.319C103.331 354.591 101.425 353.801 100.019 352.395C98.612 350.989 97.822 349.082 97.819 347.094V166.23C97.822 164.242 98.612 162.336 100.019 160.93C101.425 159.524 103.331 158.733 105.319 158.73H359.719C361.708 158.733 363.614 159.524 365.02 160.93C366.426 162.336 367.217 164.242 367.219 166.23V347.094C367.217 349.082 366.426 350.989 365.02 352.395C363.614 353.801 361.708 354.592 359.719 354.594ZM105.319 161.73C104.126 161.732 102.982 162.206 102.139 163.05C101.295 163.894 100.821 165.037 100.819 166.23V347.094C100.821 348.287 101.295 349.431 102.139 350.274C102.982 351.118 104.126 351.592 105.319 351.594H359.719C360.912 351.592 362.056 351.118 362.9 350.274C363.743 349.431 364.218 348.287 364.219 347.094V166.23C364.218 165.037 363.743 163.894 362.9 163.05C362.056 162.206 360.912 161.732 359.719 161.73H105.319Z" fill="#4D76B8"/>
<path d="M376.427 160.23H122.027C118.713 160.23 116.027 162.916 116.027 166.23V347.093C116.027 350.407 118.713 353.093 122.027 353.093H376.427C379.741 353.093 382.427 350.407 382.427 347.093V166.23C382.427 162.916 379.741 160.23 376.427 160.23Z" fill="white"/>
<path d="M356.277 180.024H142.177C138.863 180.024 136.177 182.71 136.177 186.024V327.3C136.177 330.614 138.863 333.3 142.177 333.3H356.277C359.591 333.3 362.277 330.614 362.277 327.3V186.024C362.277 182.71 359.591 180.024 356.277 180.024Z" fill="#D9EBFF"/>
<path d="M376.427 354.594H122.027C120.039 354.591 118.133 353.801 116.727 352.395C115.32 350.989 114.53 349.082 114.527 347.094V166.23C114.53 164.242 115.32 162.336 116.727 160.93C118.133 159.524 120.039 158.733 122.027 158.73H376.427C378.416 158.733 380.322 159.524 381.728 160.93C383.134 162.336 383.925 164.242 383.927 166.23V347.094C383.925 349.082 383.134 350.989 381.728 352.395C380.322 353.801 378.416 354.592 376.427 354.594ZM122.027 161.73C120.834 161.732 119.69 162.206 118.847 163.05C118.003 163.894 117.529 165.037 117.527 166.23V347.094C117.529 348.287 118.003 349.431 118.847 350.274C119.69 351.118 120.834 351.592 122.027 351.594H376.427C377.62 351.592 378.764 351.118 379.608 350.274C380.451 349.431 380.926 348.287 380.927 347.094V166.23C380.926 165.037 380.451 163.894 379.608 163.05C378.764 162.206 377.62 161.732 376.427 161.73H122.027Z" fill="#4D76B8"/>
<path d="M356.277 180.024H142.177C140.586 180.024 139.06 180.656 137.935 181.781C136.809 182.906 136.177 184.433 136.177 186.024V202.546H362.277V186.024C362.277 184.433 361.645 182.906 360.519 181.781C359.394 180.656 357.868 180.024 356.277 180.024ZM136.177 314.153V327.3C136.177 328.891 136.809 330.418 137.935 331.543C139.06 332.668 140.586 333.3 142.177 333.3H356.277C357.868 333.3 359.394 332.668 360.519 331.543C361.645 330.418 362.277 328.891 362.277 327.3V314.153H136.177Z" fill="#A9C0FF"/>
<path d="M232.027 215.628H152.827V217.628H232.027V215.628Z" fill="#456BA3"/>
<path d="M232.027 232.712H152.827V234.712H232.027V232.712Z" fill="#456BA3"/>
<path d="M345.947 249.795H152.827V251.795H345.947V249.795Z" fill="#456BA3"/>
<path d="M345.947 266.878H152.827V268.878H345.947V266.878Z" fill="#456BA3"/>
<path d="M345.947 283.961H152.827V285.961H345.947V283.961Z" fill="#456BA3"/>
<path d="M345.947 301.044H152.827V303.044H345.947V301.044Z" fill="#456BA3"/>
<g opacity="0.28">
<path d="M411.095 122.697H265.679C262.365 122.697 259.679 125.383 259.679 128.697V230.66C259.679 233.974 262.365 236.66 265.679 236.66H411.095C414.409 236.66 417.095 233.974 417.095 230.66V128.697C417.095 125.383 414.409 122.697 411.095 122.697Z" fill="#6299E8"/>
</g>
<path d="M426.215 107.893H280.799C277.485 107.893 274.799 110.579 274.799 113.893V215.856C274.799 219.17 277.485 221.856 280.799 221.856H426.215C429.529 221.856 432.215 219.17 432.215 215.856V113.893C432.215 110.579 429.529 107.893 426.215 107.893Z" fill="white"/>
<path d="M432.215 133.018H274.799V136.018H432.215V133.018Z" fill="#A9C0FF"/>
<path d="M426.215 223.355H280.799C278.811 223.353 276.904 222.562 275.498 221.156C274.092 219.75 273.301 217.844 273.299 215.855V113.893C273.301 111.905 274.092 109.998 275.498 108.592C276.904 107.186 278.811 106.395 280.799 106.393H426.215C428.203 106.395 430.11 107.186 431.516 108.592C432.922 109.998 433.713 111.905 433.715 113.893V215.855C433.713 217.844 432.922 219.75 431.516 221.156C430.11 222.562 428.203 223.353 426.215 223.355ZM280.799 109.393C279.606 109.394 278.462 109.869 277.619 110.713C276.775 111.556 276.301 112.7 276.299 113.893V215.855C276.301 217.049 276.775 218.192 277.619 219.036C278.462 219.88 279.606 220.354 280.799 220.355H426.215C427.408 220.354 428.552 219.88 429.395 219.036C430.239 218.192 430.714 217.049 430.715 215.855V113.893C430.714 112.7 430.239 111.556 429.395 110.713C428.552 109.869 427.408 109.394 426.215 109.393H280.799Z" fill="#4D76B8"/>
<path d="M340.772 142.845H294.667C293.562 142.845 292.667 143.74 292.667 144.845V190.95C292.667 192.055 293.562 192.95 294.667 192.95H340.772C341.877 192.95 342.772 192.055 342.772 190.95V144.845C342.772 143.74 341.877 142.845 340.772 142.845Z" fill="#D9EBFF"/>
<path d="M408.387 142.845H351.907C350.802 142.845 349.907 143.74 349.907 144.845V154.117C349.907 155.222 350.802 156.117 351.907 156.117H408.387C409.491 156.117 410.387 155.222 410.387 154.117V144.845C410.387 143.74 409.491 142.845 408.387 142.845Z" fill="#A9C0FF"/>
<path d="M365.241 203.638H334.574C333.469 203.638 332.574 204.533 332.574 205.638V209.246C332.574 210.351 333.469 211.246 334.574 211.246H365.241C366.345 211.246 367.241 210.351 367.241 209.246V205.638C367.241 204.533 366.345 203.638 365.241 203.638Z" fill="#A9C0FF"/>
<path d="M408.387 161.262H351.907C350.802 161.262 349.907 162.157 349.907 163.262V172.534C349.907 173.639 350.802 174.534 351.907 174.534H408.387C409.491 174.534 410.387 173.639 410.387 172.534V163.262C410.387 162.157 409.491 161.262 408.387 161.262Z" fill="#A9C0FF"/>
<path d="M408.387 179.678H351.907C350.802 179.678 349.907 180.573 349.907 181.678V190.95C349.907 192.055 350.802 192.95 351.907 192.95H408.387C409.491 192.95 410.387 192.055 410.387 190.95V181.678C410.387 180.573 409.491 179.678 408.387 179.678Z" fill="#A9C0FF"/>
<g opacity="0.28">
<path d="M188.735 72.155H43.319C40.005 72.155 37.319 74.841 37.319 78.155V180.118C37.319 183.432 40.005 186.118 43.319 186.118H188.735C192.049 186.118 194.735 183.432 194.735 180.118V78.155C194.735 74.841 192.049 72.155 188.735 72.155Z" fill="#6299E8"/>
</g>
<path d="M166.012 57.351H20.596C17.282 57.351 14.596 60.037 14.596 63.351V165.314C14.596 168.628 17.282 171.314 20.596 171.314H166.012C169.326 171.314 172.012 168.628 172.012 165.314V63.351C172.012 60.037 169.326 57.351 166.012 57.351Z" fill="white"/>
<path d="M172.013 82.476H14.597V85.476H172.013V82.476Z" fill="#A9C0FF"/>
<path d="M166.012 172.814H20.597C18.608 172.812 16.702 172.021 15.296 170.615C13.89 169.209 13.099 167.302 13.097 165.314V63.352C13.099 61.363 13.89 59.457 15.296 58.051C16.702 56.645 18.608 55.854 20.597 55.852H166.012C168.001 55.854 169.907 56.645 171.313 58.051C172.719 59.457 173.51 61.363 173.512 63.352V165.314C173.51 167.302 172.719 169.209 171.313 170.615C169.907 172.021 168.001 172.812 166.012 172.814ZM20.597 58.852C19.404 58.853 18.26 59.327 17.416 60.171C16.573 61.015 16.098 62.158 16.097 63.352V165.314C16.098 166.507 16.573 167.651 17.416 168.495C18.26 169.338 19.404 169.813 20.597 169.814H166.012C167.205 169.813 168.349 169.338 169.193 168.495C170.036 167.651 170.511 166.507 170.512 165.314V63.352C170.511 62.158 170.036 61.015 169.193 60.171C168.349 59.327 167.205 58.853 166.012 58.852H20.597Z" fill="#4D76B8"/>
<path d="M148.463 95.304H38.146C37.041 95.304 36.146 96.199 36.146 97.304V106.576C36.146 107.681 37.041 108.576 38.146 108.576H148.463C149.568 108.576 150.463 107.681 150.463 106.576V97.304C150.463 96.199 149.568 95.304 148.463 95.304Z" fill="#A9C0FF"/>
<path d="M148.463 113.72H38.146C37.041 113.72 36.146 114.615 36.146 115.72V124.992C36.146 126.097 37.041 126.992 38.146 126.992H148.463C149.568 126.992 150.463 126.097 150.463 124.992V115.72C150.463 114.615 149.568 113.72 148.463 113.72Z" fill="#A9C0FF"/>
<path d="M150.463 136.018H36.146V139.018H150.463V136.018Z" fill="#4D76B8"/>
<path d="M150.463 144.345H36.146V147.345H150.463V144.345Z" fill="#4D76B8"/>
<path d="M150.463 152.673H36.146V155.673H150.463V152.673Z" fill="#4D76B8"/>
<path d="M401.644 157.639C400.043 157.639 398.479 157.164 397.149 156.275C395.818 155.386 394.781 154.122 394.169 152.644C393.556 151.165 393.396 149.539 393.708 147.969C394.02 146.4 394.791 144.958 395.923 143.826C397.054 142.695 398.496 141.924 400.065 141.612C401.635 141.3 403.262 141.46 404.74 142.072C406.218 142.685 407.482 143.722 408.371 145.052C409.26 146.383 409.735 147.947 409.735 149.547C409.733 151.693 408.879 153.749 407.362 155.266C405.845 156.783 403.789 157.636 401.644 157.639ZM401.644 144.457C400.637 144.457 399.652 144.755 398.815 145.315C397.978 145.874 397.325 146.669 396.94 147.6C396.555 148.53 396.454 149.553 396.651 150.541C396.847 151.529 397.332 152.436 398.044 153.148C398.756 153.86 399.663 154.344 400.651 154.541C401.638 154.737 402.662 154.636 403.592 154.251C404.523 153.866 405.318 153.213 405.877 152.376C406.436 151.539 406.735 150.554 406.735 149.547C406.733 148.198 406.196 146.903 405.242 145.949C404.287 144.995 402.993 144.458 401.644 144.457ZM526.777 146.829C523.553 146.829 520.4 145.872 517.719 144.081C515.038 142.289 512.948 139.743 511.714 136.764C510.48 133.785 510.157 130.506 510.786 127.344C511.416 124.181 512.968 121.276 515.249 118.996C517.529 116.715 520.434 115.163 523.597 114.533C526.759 113.904 530.037 114.227 533.017 115.461C535.996 116.695 538.542 118.785 540.334 121.466C542.125 124.147 543.082 127.3 543.082 130.524C543.077 134.847 541.357 138.991 538.301 142.048C535.244 145.104 531.1 146.824 526.777 146.829ZM526.777 117.22C524.146 117.22 521.574 118 519.386 119.462C517.198 120.924 515.493 123.002 514.486 125.433C513.479 127.864 513.215 130.539 513.729 133.12C514.242 135.701 515.509 138.071 517.37 139.932C519.231 141.793 521.601 143.06 524.182 143.573C526.763 144.086 529.438 143.823 531.869 142.816C534.3 141.809 536.377 140.104 537.839 137.916C539.301 135.728 540.082 133.156 540.082 130.524C540.078 126.997 538.675 123.615 536.18 121.121C533.686 118.627 530.305 117.224 526.777 117.22Z" fill="#4D76B8"/>
<path d="M526.777 138.84C525.133 138.84 523.525 138.353 522.157 137.439C520.79 136.525 519.724 135.226 519.094 133.707C518.465 132.187 518.3 130.515 518.621 128.902C518.942 127.289 519.734 125.807 520.897 124.644C522.06 123.481 523.542 122.689 525.155 122.368C526.768 122.047 528.44 122.212 529.96 122.841C531.479 123.471 532.778 124.537 533.692 125.904C534.606 127.272 535.093 128.88 535.093 130.524C535.091 132.729 534.214 134.843 532.655 136.402C531.096 137.961 528.982 138.838 526.777 138.84ZM526.777 125.208C525.726 125.208 524.698 125.52 523.824 126.104C522.95 126.689 522.268 127.519 521.866 128.49C521.464 129.461 521.358 130.53 521.564 131.561C521.769 132.593 522.275 133.54 523.018 134.283C523.762 135.027 524.709 135.533 525.74 135.738C526.771 135.943 527.84 135.838 528.812 135.436C529.783 135.033 530.613 134.352 531.197 133.478C531.782 132.604 532.093 131.576 532.093 130.524C532.092 129.115 531.531 127.764 530.534 126.767C529.538 125.771 528.187 125.21 526.777 125.208ZM483.543 160.815H479.509C477.651 160.813 475.87 160.074 474.556 158.76C473.243 157.446 472.504 155.665 472.501 153.807C472.503 153.274 472.398 152.745 472.191 152.253C471.984 151.761 471.681 151.316 471.298 150.944C470.916 150.572 470.464 150.28 469.969 150.084C469.473 149.888 468.944 149.791 468.411 149.8L408.266 151.047L408.204 148.048L468.349 146.801C469.281 146.782 470.208 146.949 471.075 147.292C471.942 147.635 472.731 148.148 473.398 148.801C474.064 149.453 474.593 150.232 474.954 151.092C475.315 151.952 475.502 152.875 475.501 153.807C475.503 154.87 475.925 155.888 476.677 156.64C477.428 157.391 478.447 157.814 479.509 157.815H483.543C484.606 157.814 485.625 157.391 486.376 156.64C487.127 155.888 487.55 154.87 487.551 153.807V136.032C487.553 134.174 488.292 132.393 489.606 131.079C490.92 129.765 492.701 129.027 494.559 129.024H512.934V132.024H494.559C493.496 132.026 492.478 132.448 491.726 133.2C490.975 133.951 490.553 134.969 490.551 136.032V153.807C490.549 155.665 489.81 157.446 488.496 158.76C487.183 160.074 485.401 160.813 483.543 160.815Z" fill="#4D76B8"/>
<path d="M613.187 131.358H563.314C561.657 131.358 560.314 132.701 560.314 134.358V208.245C560.314 209.902 561.657 211.245 563.314 211.245H613.187C614.844 211.245 616.187 209.902 616.187 208.245V134.358C616.187 132.701 614.844 131.358 613.187 131.358Z" fill="#A9C0FF"/>
<path d="M592.56 152.069H569.822V154.069H592.56V152.069Z" fill="#4D76B8"/>
<path d="M596.976 144.708H569.822V146.708H596.976V144.708Z" fill="#4D76B8"/>
<path d="M607.528 159.43H569.822V161.43H607.528V159.43Z" fill="#456BA3"/>
<path d="M592.772 183.566H584.578V202.196H592.772V183.566Z" fill="#FAFAFA"/>
<path d="M579.319 179.947H571.125V202.196H579.319V179.947Z" fill="#FAFAFA"/>
<path d="M606.224 171.302H598.03V202.196H606.224V171.302Z" fill="#FAFAFA"/>
<path d="M2.032 214.526C1.481 214.124 1.019 213.614 0.673998 213.026C0.328998 212.439 0.108995 211.786 0.026995 211.11C-0.055005 210.433 0.0030084 209.747 0.197008 209.094C0.392008 208.441 0.719007 207.835 1.15801 207.314L22.584 181.407C22.956 180.961 23.484 180.674 24.06 180.603C24.637 180.533 25.218 180.685 25.687 181.029L35.025 187.855C35.496 188.198 35.818 188.707 35.927 189.278C36.035 189.85 35.921 190.442 35.608 190.933L17.406 219.18C17.043 219.754 16.566 220.247 16.005 220.63C15.444 221.012 14.811 221.275 14.144 221.403C13.477 221.531 12.791 221.521 12.128 221.373C11.465 221.226 10.84 220.944 10.29 220.545L2.032 214.526Z" fill="#618AC6"/>
<path d="M2.03701 214.518C1.48601 214.117 1.024 213.608 0.678 213.021C0.333 212.434 0.112006 211.782 0.0280059 211.106C-0.0549941 210.43 0.00201339 209.744 0.195013 209.091C0.388013 208.437 0.713 207.831 1.15 207.308L22.59 181.406C22.961 180.96 23.489 180.673 24.065 180.604C24.641 180.535 25.222 180.689 25.688 181.035L35.024 187.849C35.274 188.034 35.486 188.264 35.65 188.529L32.122 185.949C31.653 185.609 31.072 185.46 30.498 185.532C29.923 185.604 29.397 185.893 29.027 186.338L7.58701 212.241C6.85201 213.111 6.439 214.209 6.42 215.348C6.402 216.487 6.778 217.598 7.484 218.492L2.03701 214.518Z" fill="#92B1EF"/>
<path d="M39.781 180.206L35.044 187.77L26.171 181.175L31.841 174.477L39.781 180.206Z" fill="#4469A0"/>
<path d="M92.911 142.432C91.799 135.311 88.602 128.68 83.722 123.378C78.842 118.075 72.499 114.338 65.495 112.64C58.491 110.942 51.141 111.359 44.375 113.838C37.608 116.318 31.728 120.748 27.48 126.569C23.231 132.39 20.803 139.34 20.505 146.54C20.206 153.74 22.049 160.868 25.801 167.021C29.552 173.173 35.045 178.076 41.582 181.107C48.12 184.139 55.411 185.163 62.531 184.052C72.076 182.557 80.638 177.333 86.334 169.529C92.031 161.725 94.396 151.979 92.911 142.432ZM61.011 174.712C55.734 175.536 50.331 174.778 45.485 172.532C40.64 170.286 36.569 166.654 33.787 162.094C31.006 157.535 29.639 152.253 29.86 146.917C30.08 141.58 31.878 136.429 35.027 132.115C38.175 127.8 42.531 124.516 47.546 122.678C52.56 120.839 58.007 120.529 63.198 121.787C68.389 123.044 73.09 125.813 76.708 129.742C80.325 133.671 82.696 138.585 83.521 143.862C84.069 147.365 83.921 150.943 83.086 154.389C82.251 157.836 80.745 161.084 78.655 163.949C76.565 166.813 73.931 169.238 70.903 171.085C67.876 172.932 64.515 174.164 61.011 174.712Z" fill="#618AC6"/>
</g>
</svg>
