<svg version="1.2" xmlns="http://www.w3.org/2000/svg" viewBox="0 0 2451 1611" width="1000" height="657">
	<title>13399752_Work_6-ai</title>
	<style>
		.s0 { opacity: .6;fill: #edf2ff } 
		.s1 { fill: #f9b384 } 
		.s2 { fill: #e28b6d } 
		.s3 { fill: #1f3c88 } 
		.s4 { fill: #d3dfff } 
		.s5 { fill: #708cd5 } 
		.s6 { fill: #102048 } 
		.s7 { fill: #a11c20 } 
		.s8 { opacity: .3;fill: #611113 } 
		.s9 { fill: #e1272c } 
		.s10 { fill: #ffffff } 
		.s11 { opacity: .3;fill: #1f3c88 } 
		.s12 { opacity: .4;fill: #fc8879 } 
		.s13 { fill: #c6eae9 } 
		.s14 { fill: #fbd682 } 
		.s15 { fill: #ee6f57 } 
		.s16 { fill: #f5c7be } 
		.s17 { opacity: .6;fill: #ee6f57 } 
		.s18 { opacity: .6;fill: #d3dfff } 
		.s19 { fill: #89a6a5 } 
		.s20 { fill: none;stroke: #102048;stroke-miterlimit:10;stroke-width: 2.9 } 
	</style>
	<g id="_Artboards_">
	</g>
	<g id="BACKGROUND">
	</g>
	<g id="OBJECTS">
		<g id="&lt;Group&gt;">
			<g id="&lt;Group&gt;">
				<path id="&lt;Path&gt;" class="s0" d="m838.9 362.5c-46.6-11-97.9-0.9-135.1 35.2-42.9 41.6-71.8 96-81.1 152.6-28.6 173.3 385.7 105.5 324.6-95.5-14.7-48.2-60.8-81.1-108.4-92.3z"/>
				<path id="&lt;Path&gt;" class="s0" d="m2234.8 1143.3c-103.6 147.6-266.3 246.8-432 324.5-47.4 22.3-95.4 43.1-143.9 63-33.7 13.8-67.5 27.1-101.5 40h-1109.5c-12.5-13.1-24.5-26.4-36.2-40-108-126.3-177.5-275.9-135.1-448.5 43.3-176.2 199.5-320.2 381.7-358.4 123.4-26 255.5-6.1 372.9-52 137.3-53.7 223.8-184.1 334.3-280.2 114.6-99.6 262.7-164.8 415-172.2 152.3-7.4 307.4 45.6 412.1 150.4 73.6 73.7 120.8 170.1 142.8 271 37.1 170.1 1.8 356.4-100.6 502.4z"/>
			</g>
			<g id="&lt;Group&gt;">
				<g id="&lt;Group&gt;">
					<path id="&lt;Path&gt;" class="s1" d="m953.9 251.4c-0.4 1.7-0.8 3.5-1.2 5.1q0 0.1 0 0.2c-6.8 28-12.7 47-23.7 65.1l-38.6-36.6 21.1-39.9 1.4-2.5v-0.1h0.3l4.4 1z"/>
					<path id="&lt;Path&gt;" class="s1" d="m961.1 221.9q-0.1 1.9-0.4 3.7c-0.4 3.8-1.2 7.7-2.1 11.6-0.6 2.5-1.3 5.1-2 7.5-0.9 3-1.8 5.8-2.7 8.3q-0.3 1-0.6 1.9-0.2 0.8-0.6 1.6 0 0.1 0 0.2c-0.3 0.7-0.6 1.4-0.8 2.2q0 0.1-0.1 0.2c-0.2 0.6-0.5 1.2-0.7 1.7-1.4 3.7-2.4 6-2.4 6-14.9-2.4-25.7-10.4-33.4-20.7q-1.2-1.5-2.3-3.1c-0.1-0.1-0.1-0.1-0.1-0.2v-0.1c-10-14.7-14.4-33.1-16.5-46.9 0-0.1 0-0.3-0.1-0.4-0.7-5-1.1-9.4-1.3-12.7-0.3-3.8 2.7-7 6.5-6.9l5.8 0.1 6.4-10.8 45.1 20c0 0 2 9.4 2.5 22.2 0.2 4.5 0.2 9.5-0.2 14.6z"/>
					<path id="&lt;Path&gt;" class="s2" d="m932.4 228l-14.8 15.7-4.7-0.9v-0.1c-10-14.7-14.4-33.1-16.5-46.9l11.5 2.7c0.5 7.5 6.7 22.9 6.7 22.9z"/>
					<path id="&lt;Path&gt;" class="s2" d="m912.4 198c-4.7 3.9-12.4-0.2-16.1-2.6-0.7-5-1.1-9.4-1.3-12.7-0.3-3.8 2.7-7 6.5-6.9l5.8 0.1c0 0 10.9 17.3 5.1 22.1z"/>
					<path id="&lt;Compound Path&gt;" fill-rule="evenodd" class="s1" d="m961.1 221.9c-1.4 19.6-12.4 44.9-12.4 44.9-16.4-2.7-27.8-12-35.7-23.8 6.4-8.4 12.9-12.3 17.8-14.1l-16.2-7.5 10.9-22.1 33.9 7.7 1.9 0.3c0.2 4.5 0.2 9.5-0.2 14.6zm-20.8 5.6l-1.4-10.6-9.8-0.7c7.5 3.2 7.6 8.3 6.6 11.5 2.8-0.5 4.6-0.2 4.6-0.2z"/>
				</g>
				<path id="&lt;Path&gt;" class="s3" d="m958.3 286.8c-36.5 92.5-105.8 198.5-171.5 270.7-24.1 26.5-47.7 48.4-69.1 63.5l-35.1-90.7-4.4-11.4 11-9.8 2-1.8 127.4-114 82.9-136.9z"/>
				<g id="&lt;Group&gt;">
					<path id="&lt;Path&gt;" class="s1" d="m771.7 1424.5l-83.1 3.3-13 58.2 77.9 12.2z"/>
					<path id="&lt;Path&gt;" class="s4" d="m825.2 1570.8l-71.7-72.6-77.9-12.2-18.9 84.2z"/>
					<path id="&lt;Path&gt;" class="s5" d="m709 1518.5l-38.5-7.5 0.8-3.9 38.5 7.5z"/>
					<path id="&lt;Path&gt;" class="s5" d="m753.2 1536.9l-1.6-3.7 24.5-10.5 1.6 3.7z"/>
					<path id="&lt;Path&gt;" class="s5" d="m768.7 1550.9l-1.6-3.7 24.5-10.5 1.6 3.7z"/>
				</g>
				<path id="&lt;Path&gt;" class="s6" d="m587.6 851.7l145.3 270.3-76.2 324.5 141.6-0.8 78.4-256c13-42.3 9.9-87.9-8.7-128l-85.1-183.7z"/>
				<g id="&lt;Group&gt;">
					<path id="&lt;Path&gt;" class="s7" d="m568.9 793c-93.8 125.1-217.1 195.4-354.6 239.7 2.8-5 5.1-10 6.8-15 5.1-15.2 4.6-30.8-6.8-46.8l-4.2-43.6 252.7-186.7 60.4 40.7z"/>
					<path id="&lt;Path&gt;" class="s7" d="m76.7 737.8c49.2 95.5 51.8 227.9 137.6 233.1l399.9-257.9-117.7-204.1-320.1 126.4z"/>
					<path id="&lt;Path&gt;" class="s8" d="m221.1 1017.7c5.1-15.2 4.6-30.8-6.8-46.8 75.6-38.2 165.5-98.9 261.2-168.6-78.4 79.5-161.5 153.4-254.4 215.4z"/>
					<path id="&lt;Path&gt;" class="s9" d="m579.4 750.4c-89.9 157.3-241.3 228.5-438.1 286.5l59.2 39.2c19.4 12.8 44.7 12.5 63.8-0.9 123.8-86.6 237.2-174.2 323.5-264.4z"/>
					<path id="&lt;Path&gt;" class="s9" d="m614.5 507.5c-115.5-51.7-303.6 36.4-489.9 121-42.5 19.4-72.7 58.7-80.4 104.8l-16.6 100c109.5-167.1 339-279.6 586.9-325.8z"/>
				</g>
				<path id="&lt;Path&gt;" class="s1" d="m694.9 511.2c-0.5 17.4-1.2 32-1 34.8l-67 10.4-38.3-28.1c18.2-20.8 26.7-68.4 37.3-109.6l42 25.1 27.3 16.2c0.7 13.9 0.3 33.9-0.3 51.2z"/>
				<path id="&lt;Path&gt;" class="s2" d="m694.9 511.2c-20-12-46-30.4-57.8-71.9l30.8 4.5 27.3 16.2c0.7 13.9 0.3 33.9-0.3 51.2z"/>
				<path id="&lt;Path&gt;" class="s1" d="m734.7 410.5c0.5 9.3-0.7 17.8-3.2 25.3-13.1 40-62.9 51-99.6-0.3l-3.1-79.1 26-22.3 84.4 32.6-5.3 34.9c0.4 3.1 0.8 6 0.8 8.9z"/>
				<path id="&lt;Path&gt;" class="s5" d="m829.1 808.2c-13.1-89.9-72-223.7-134.7-280.1l-29.5 59 85.6 241.5z"/>
				<path id="&lt;Path&gt;" class="s10" d="m787 808.2c-19.9-91.8-46.8-188.2-92.6-280.1-23.2 26.7-91.3-25.3-91.3-25.3l-35.1 30.2 92.7 315.4z"/>
				<g id="&lt;Group&gt;">
					<path id="&lt;Path&gt;" class="s1" d="m873.1 1126.5l-72-24.4-17.5 42.4 68.9 37.2z"/>
					<path id="&lt;Path&gt;" class="s4" d="m894.7 1272.5l-42.2-90.8-68.9-37.2-31.2 75.6z"/>
					<path id="&lt;Path&gt;" class="s5" d="m840.7 1215.9l-1-3.8 24-6.7 1 3.9z"/>
					<path id="&lt;Path&gt;" class="s5" d="m849.4 1233.9l-1.1-3.8 24-6.7 1.1 3.9z"/>
					<path id="&lt;Path&gt;" class="s5" d="m814.6 1189.1l-41.3-20.6 1.8-3.6 41.3 20.7z"/>
				</g>
				<path id="&lt;Path&gt;" class="s3" d="m662.5 755.8c99.4 7.1 201.5 24.8 292.4 64.2 48.9 21.3 65.2 88.4 42.9 136.9l-90 195.3-130.6-40.7 83-172.8c-250.9 7.5-278.3-84.7-278.3-84.7z"/>
				<path id="&lt;Path&gt;" class="s5" d="m710.3 814.7c-32.8 58.6-80.5 90.8-139.4 113.3l-6.8-59.7-12.3-109.5-18.9-168.8 12.6-59.8 57.6-27.4c63.2 66.7 83.6 215.7 107.2 311.9z"/>
				<path id="&lt;Path&gt;" class="s6" d="m634.7 399.9c1.1-21.6 7.1-33.2 23.2-39.9 30.6 27.9 87.1 26.9 115.3 1.2-10.2-3.6-17.6-6.2-25-13.8-4.2-4.4-6.3-7.4-11.8-18.3-19.6-39.1-92.9-41.7-103.2-4.1-45.3 22-23.4 55.4-16 75.7z"/>
				<g id="&lt;Group&gt;">
					<path id="&lt;Path&gt;" class="s2" d="m649.9 653.6l5.1-37.7 23.2-11.9c0 0 11.5 1.9 6.7 16.8-4.9 14.8-35 32.8-35 32.8z"/>
					<path id="&lt;Path&gt;" class="s1" d="m635.3 662.5l14.6-8.9 18.8-31.3 25.2-12.6c1.5-0.8 3.3-0.1 4 1.4 3.2 2.7 4.9 6.7 5 12.1 5.6 4.7 6.7 10.1 4.2 15.8 7.8 3.4 10.7 7.5 8.4 12.4 3.5 5.7 5.6 11.3 4.2 18l-38.8 28.1-38.2 14.1z"/>
				</g>
				<path id="&lt;Path&gt;" class="s11" d="m647.5 719.3c-15.8 64.4-43 114.9-83.4 149l-12.3-109.5z"/>
				<path id="&lt;Path&gt;" class="s5" d="m603.1 502.8l-79.6 9.5c-27.8 3.3-51.3 22.1-61 48.4-24.3 66.6-40.8 137.9-44.8 199.2-2.5 38.8 33.3 69 71.3 60.6 62.4-13.9 113.3-54.2 158.5-101.2l-7.4-64.6-127.3 60.8z"/>
				<path id="&lt;Path&gt;" class="s1" d="m646.4 414.2c-4.8 10.6-12.7 17.7-22.9 13-10.3-4.7-22.9-19.6-16.3-34.1 4.8-10.5 19.3-11.2 29.5-6.5 10.2 4.7 14.5 17.1 9.7 27.6z"/>
				<path id="&lt;Path&gt;" class="s3" d="m553.6 617.7c-2.9 8.3-6 16.5-9.1 24.8-3.1 8.2-6.5 16.4-9.7 24.6l-10.1 24.4c-3.5 8-7.1 16.1-10.9 24.1l-1.4-0.6c2.8-8.4 5.9-16.6 9-24.9l9.8-24.5c3.4-8.1 6.6-16.3 10.2-24.4 3.5-8.1 7-16.2 10.7-24.1z"/>
				<path id="&lt;Path&gt;" class="s3" d="m513 714.3c10.4-5.4 20.8-10.7 31.3-15.9 10.5-5.2 21-10.2 31.6-15.3l31.7-14.9c10.7-4.8 21.3-9.7 32.1-14.2l0.7 1.4c-10.3 5.5-20.8 10.7-31.3 15.9l-31.5 15.3c-10.6 5-21.2 10-31.8 14.9-10.7 4.9-21.4 9.6-32.1 14.2z"/>
				<g id="&lt;Group&gt;" style="opacity: .3">
					<path id="&lt;Path&gt;" class="s3" d="m647.9 548.5c6.5 5.3 14.7 8 22.6 7.4 8-0.5 15.7-4.2 21.6-10.1l1.2 0.9c-4.6 7.7-13.4 12.7-22.5 13.2-9.1 0.5-18.4-3.4-24-10.3z"/>
					<path id="&lt;Path&gt;" class="s3" d="m706.1 742.3c5.1-5 9.5-10.5 13.3-16.4 3.8-6 7-12.2 9.4-18.8 2.4-6.6 4.1-13.4 5-20.4 1-7 1.2-14 0.7-21.1l1.5-0.2c1.6 7 1.9 14.4 1.3 21.7-0.7 7.3-2.3 14.5-4.8 21.3-2.7 6.9-6 13.5-10.3 19.4-4.2 5.9-9.3 11.3-15 15.7z"/>
					<path id="&lt;Path&gt;" class="s3" d="m715.8 744.2c5.7-3.9 11.1-8 16.2-12.5 5.1-4.5 9.8-9.4 14.6-14.5l1.3 0.9c-3.2 6.3-7.9 11.9-13.3 16.6-5.3 4.6-11.4 8.5-18.1 10.9z"/>
				</g>
				<path id="&lt;Path&gt;" class="s2" d="m632.2 407.8q-0.9-2.8-2.5-5.1c-1.1-1.5-2.3-2.9-3.9-3.9-2.9-2.2-6.6-3.2-10.6-3.3l-0.2-1.1c2-0.8 4.3-0.9 6.5-0.6 2.1 0.4 4.2 1.3 6.1 2.6 1.7 1.3 3.3 3 4.3 5 1 1.9 1.5 4.1 1.5 6.3z"/>
				<path id="&lt;Path&gt;" class="s6" d="m677.5 382.2c-6.8-1.9-8.6 9.9-7.5 14.2 0.9 4.1 4.2 5.2 7 2 2.6-3 6.4-14.6 0.5-16.2z"/>
				<path id="&lt;Path&gt;" class="s6" d="m721.1 389.7c-0.9-3.7-5.1-5.1-7.4-2.1-1 1.3-1.5 3-1.7 4.7-0.4 2.6-1.1 5.8-0.3 8.5 1.2 3.3 4.2 4.8 6.4 1.7 2.2-3.2 3.9-8.9 3-12.8z"/>
				<path id="&lt;Path&gt;" class="s6" d="m697.5 395.2c-0.1 3.2-0.2 6.3-0.1 9.3 0.1 1.5 0.1 3 0.5 4 0.5 1.1 1.3 2.2 2.3 3.3 1 1.1 2.1 2.3 3.1 3.9 0.5 0.7 0.9 1.6 1.2 2.6 0.2 0.9 0.4 2.3-0.3 3.5-0.6 1.2-1.6 1.8-2.4 2.1-0.9 0.4-1.6 0.7-2.4 0.9-1.5 0.4-2.9 0.9-4.1 1.6l-1-1.1c1.2-1.4 2.8-2.2 4.1-2.9 1.4-0.6 2.9-1.5 2.9-2 0.1-0.4-0.2-1.7-1.1-2.7-0.7-1.1-1.8-2.2-2.8-3.4-1.1-1.3-2.3-2.7-2.9-4.6-0.6-2-0.4-3.6-0.3-5.3 0.3-3.3 0.9-6.4 1.9-9.4z"/>
				<path id="&lt;Path&gt;" class="s10" d="m674.6 423.9l27.8 13.5c-4.8 9.2-26 8.2-27.8-13.5z"/>
				<path id="&lt;Path&gt;" class="s12" d="m731.5 435.8q-1.1 0.2-2.3 0.2c-7.4 0-13.3-5.9-13.3-13.3 0-7.4 5.9-13.4 13.3-13.4 2 0 3.9 0.5 5.5 1.2 0.5 9.3-0.7 17.8-3.2 25.3z"/>
				<path id="&lt;Path&gt;" class="s12" d="m670.2 414.4c0 7.3-6 13.3-13.3 13.3-7.4 0-13.4-6-13.4-13.3 0-7.4 6-13.4 13.4-13.4 7.3 0 13.3 6 13.3 13.4z"/>
			</g>
			<g id="&lt;Group&gt;">
				<path id="&lt;Path&gt;" class="s13" d="m1006.9 53.6c-9.5-8.3-20-22.2-30.6-37.5 6.8-1 12.7-2.7 15.8-5.9 7.5 16 15.4 26 27.2 38.8-4.8-1.5-7.9 3.1-12.4 4.6z"/>
				<path id="&lt;Path&gt;" class="s14" d="m452.8 404c-8.6-7.5-18-20-27.5-33.8 6.1-0.9 11.4-2.4 14.2-5.3 6.7 14.4 13.8 23.4 24.5 35-4.4-1.5-7.1 2.7-11.2 4.1z"/>
				<path id="&lt;Path&gt;" class="s14" d="m609 285.9c3.8-8.6 10.8-18.6 18.6-29 1.5 5.2 3.3 9.6 5.6 11.7-8.6 8-13.6 15.5-19.8 26.5 0.3-4-2.9-5.8-4.4-9.2z"/>
				<path id="&lt;Path&gt;" class="s15" d="m1003.5 582.1c4.2-9.6 11.9-20.7 20.6-32.3 1.7 5.9 3.6 10.7 6.3 13-9.6 8.9-15.2 17.3-22 29.5 0.3-4.5-3.2-6.5-4.9-10.2z"/>
				<path id="&lt;Path&gt;" class="s5" d="m1191 56.9c4.2-9.5 11.9-20.7 20.6-32.2 1.7 5.8 3.7 10.7 6.3 13-9.6 8.8-15.2 17.2-22 29.4 0.3-4.4-3.2-6.4-4.9-10.2z"/>
				<path id="&lt;Path&gt;" class="s5" d="m289.4 361c-3.7-8.6-10.7-18.6-18.5-29-1.5 5.2-3.3 9.6-5.7 11.7 8.7 8 13.7 15.5 19.9 26.5-0.3-4 2.8-5.8 4.3-9.2z"/>
				<path id="&lt;Path&gt;" class="s4" d="m763.9 213.2c-4.1-9.5-11.9-20.7-20.6-32.3-1.7 5.9-3.6 10.7-6.3 13 9.7 8.9 15.2 17.3 22.1 29.5-0.4-4.5 3.1-6.5 4.8-10.2z"/>
				<path id="&lt;Path&gt;" class="s16" d="m1134.6 209c-11.9 2.9-28.5 4.1-46.4 5 3.4-4.8 5.6-9.2 5-12.5 16.5 1.5 28.7 0.4 45.4-2.2-4.1 2.5-2.4 6.2-4 9.7z"/>
				<path id="&lt;Path&gt;" class="s13" d="m420.8 120.6c10.7 4 25.7 5.7 41.7 6.9-3-6.6-5-12.6-4.5-17.2-14.8 2.1-25.8 0.5-40.8-3.1 3.6 3.4 2.2 8.6 3.6 13.4z"/>
				<path id="&lt;Path&gt;" class="s15" d="m786.6 70.4c-12 7.1-29.6 12.6-48.4 17.7 2.4-8.5 3.7-16.2 2.3-21.4 18-1 30.8-5.4 48-13.1-3.7 4.9-1.1 10.7-1.9 16.8z"/>
				<path id="&lt;Path&gt;" class="s13" d="m1034.2 400.1c9 6 19.3 16.8 30 28.8-5.9 1.7-10.8 3.8-13.2 7-8-13-15.7-20.7-27.2-30.4 4.4 0.8 6.6-3.6 10.4-5.4z"/>
				<path id="&lt;Path&gt;" class="s14" d="m879.3 409.5c9 6.1 19.3 16.8 30 28.8-5.9 1.7-10.8 3.9-13.2 7.1-8-13-15.7-20.7-27.2-30.4 4.4 0.8 6.6-3.6 10.4-5.5z"/>
				<path id="&lt;Path&gt;" class="s16" d="m484.8 224.4c10.1 6.8 21.7 18.9 33.7 32.4-6.6 1.9-12.1 4.3-14.8 7.9-9-14.6-17.7-23.3-30.6-34.2 4.9 0.9 7.4-4 11.7-6.1z"/>
				<path id="&lt;Path&gt;" class="s16" d="m1141.3 341.7c7.5-6.9 15.2-19.1 23-32.5-6.1-1.7-11.4-3.8-14.5-7.3-4.9 14.5-10.8 23.2-19.8 34.2 4-1 7.2 3.7 11.3 5.6z"/>
				<path id="&lt;Path&gt;" class="s15" d="m1397.3 320.4c3.7-8.6 10.7-18.6 18.5-29 1.5 5.2 3.3 9.6 5.7 11.6-8.7 8-13.7 15.6-19.9 26.6 0.3-4-2.8-5.8-4.3-9.2z"/>
				<path id="&lt;Path&gt;" class="s4" d="m1304.8 163.5c-3.1 12.4-10.2 27.6-18.3 43.5-3.1-6.5-6.4-11.8-10-13.8 9.8-13 14.8-24.3 20.6-40.6 0.4 5.4 5 6.9 7.7 10.9z"/>
				<path id="&lt;Path&gt;" class="s4" d="m1210 431.5c2.3 9 7.5 20.2 13.4 31.8 2.3-4.8 4.7-8.6 7.3-10.1-7.1-9.5-10.8-17.8-15-29.7-0.4 3.9-3.7 5-5.7 8z"/>
				<path id="&lt;Path&gt;" class="s14" d="m1491.8 143c-10.2 6.8-21.8 18.9-33.8 32.3 6.6 2 12.1 4.4 14.9 8 8.9-14.6 17.7-23.3 30.5-34.2-4.9 0.9-7.4-4-11.6-6.1z"/>
			</g>
			<path id="&lt;Path&gt;" class="s6" d="m2435.6 1570.8h-2292.1v-4h2292.1z"/>
			<g id="&lt;Group&gt;">
				<g id="&lt;Group&gt;">
					<path id="&lt;Path&gt;" class="s4" d="m2134 937.6h-136.5c0 0 11.7-54.7 68.2-54.7 61.5 0 68.3 54.7 68.3 54.7z"/>
					<path id="&lt;Path&gt;" class="s6" d="m2062.7 938.3l-20.3-50.7 3.7-1.5 20.4 50.7z"/>
				</g>
				<g id="&lt;Group&gt;">
					<path id="&lt;Path&gt;" class="s16" d="m1741.9 929.2h-55.1v-147.2h55.1z"/>
					<path id="&lt;Path&gt;" class="s17" d="m1741.9 851.1h-55.1v-69.1h55.1z"/>
					<path id="&lt;Path&gt;" class="s15" d="m1818.3 937.4h-208v-3c0-17.9 14.5-32.4 32.4-32.4h143.2c17.9 0 32.4 14.5 32.4 32.4z"/>
					<path id="&lt;Path&gt;" class="s16" d="m2027.1 818.1h-614.5v-386.2h614.5z"/>
					<path id="&lt;Path&gt;" class="s10" d="m2008 787.7h-576.3v-336.9h576.3z"/>
					<g id="&lt;Group&gt;">
						<path id="&lt;Path&gt;" class="s4" d="m1724.4 741.3h-21.8v-53.7h21.8z"/>
						<path id="&lt;Path&gt;" class="s4" d="m1763.1 741.3h-21.8v-67.7h21.8z"/>
						<path id="&lt;Path&gt;" class="s4" d="m1801.9 741.3h-21.8v-100.5h21.8z"/>
						<path id="&lt;Path&gt;" class="s4" d="m1840.6 741.3h-21.8v-116.8h21.8z"/>
						<path id="&lt;Path&gt;" class="s4" d="m1879.4 741.3h-21.8v-90h21.8z"/>
						<path id="&lt;Path&gt;" class="s4" d="m1918.1 741.3h-21.8v-121.2h21.8z"/>
						<path id="&lt;Path&gt;" class="s4" d="m1956.9 741.3h-21.8v-150.2h21.8z"/>
						<path id="&lt;Path&gt;" class="s4" d="m1710.9 651.8l-0.6-4 39-6 39.8-46.9 40.2-2.2 39.1 24.1 33.5-28.6 51.8-58.9 3 2.6-52 59.1-36 30.7-40.4-24.9-37.2 2-39.7 46.8z"/>
					</g>
					<g id="&lt;Group&gt;">
						<path id="&lt;Path&gt;" class="s4" d="m1641.7 514.2h-158.8v-10.8h158.8z"/>
						<path id="&lt;Path&gt;" class="s4" d="m1621.6 539.6h-138.7v-10.8h138.7z"/>
						<path id="&lt;Path&gt;" class="s18" d="m1632.8 565h-149.9v-10.7h149.9z"/>
						<path id="&lt;Path&gt;" class="s18" d="m1617.2 590.5h-134.3v-10.8h134.3z"/>
						<path id="&lt;Path&gt;" class="s18" d="m1577.2 615.9h-94.3v-10.8h94.3z"/>
						<path id="&lt;Path&gt;" class="s4" d="m1642.4 741.3h-159.5v-101.6h159.5z"/>
					</g>
				</g>
				<g id="&lt;Group&gt;">
					<g id="&lt;Group&gt;">
						<path id="&lt;Path&gt;" class="s10" d="m1334.1 936.5h-171.7v-115h171.7z"/>
						<path id="&lt;Compound Path&gt;" fill-rule="evenodd" class="s6" d="m1335.8 938.3h-175.1v-118.6h175.1zm-171.7-3.4h168.3v-111.6h-168.3z"/>
					</g>
					<path id="&lt;Path&gt;" class="s18" d="m1332.2 869.8h-168.3v-48.3h168.3z"/>
					<g id="&lt;Group&gt;">
						<path id="&lt;Path&gt;" class="s10" d="m1354.8 847.2h-213.1v-46h213.1z"/>
						<path id="&lt;Compound Path&gt;" fill-rule="evenodd" class="s6" d="m1356.5 848.9h-216.5v-49.4h216.5zm-213-3.5h209.5v-42.4h-209.5z"/>
					</g>
				</g>
				<g id="&lt;Group&gt;">
					<path id="&lt;Path&gt;" class="s4" d="m2209.1 980.9h-1127.7v-43.2h1127.7z"/>
					<path id="&lt;Path&gt;" class="s6" d="m2211.1 1570.1h-4v-631.8h-1123.8v631.8h-4v-635.8h1131.8z"/>
				</g>
				<g id="&lt;Group&gt;">
					<path id="&lt;Path&gt;" class="s6" d="m1494.1 1568.4l-23.1-308.4 4-0.3 23.1 308.4z"/>
					<path id="&lt;Path&gt;" class="s6" d="m1259.3 1570.1l-3.8-1.4 127.4-328.9 3.8 1.5z"/>
					<path id="&lt;Path&gt;" class="s6" d="m1699.4 1570.7l-127.6-329.4 3.7-1.5 127.6 329.4z"/>
					<path id="&lt;Path&gt;" class="s19" d="m1747.7 1215.4l-274.7-47.4-46.6 78.9 170.7 17.8 151-40.1c5.2-1.4 4.8-8.3-0.4-9.2z"/>
					<path id="&lt;Path&gt;" class="s13" d="m1747.4 1225c-48.5 33.6-170.5 78.3-282.3 81.1-96.7 2.5-188.7-44.9-209.7-158.7-15.5-83.6-28.4-176.1-26.8-223 0.5-12.1 10.7-21.5 22.8-21.2l114 2.8c34.6 0.9 66.4 19.3 84.6 48.8 61.7 99.8 58.4 339.1 297.4 270.2z"/>
					<path id="&lt;Path&gt;" class="s20" d=""/>
					<path id="&lt;Path&gt;" class="s20" d=""/>
				</g>
				<g id="&lt;Group&gt;">
					<g id="&lt;Group&gt;">
						<path id="&lt;Path&gt;" class="s10" d="m2079.6 1568.9h-191v-418h191z"/>
						<path id="&lt;Compound Path&gt;" fill-rule="evenodd" class="s6" d="m2081.4 1570.8h-194.6v-421.7h194.6zm-191-3.7h187.3v-414.4h-187.3z"/>
					</g>
					<path id="&lt;Path&gt;" class="s14" d="m2007.1 1238.3c0 12.7-10.3 23-23 23-12.7 0-23-10.3-23-23 0-12.7 10.3-23 23-23 12.7 0 23 10.3 23 23z"/>
					<path id="&lt;Path&gt;" class="s14" d="m2019.1 1511.3h-70v-170h70z"/>
				</g>
			</g>
		</g>
	</g>
</svg>