<svg version="1.2" xmlns="http://www.w3.org/2000/svg" viewBox="0 0 2000 2000" width="1000" height="1000">
	<title>13399753_Work_7-ai</title>
	<style>
		.s0 { fill: #9192ff } 
		.s1 { fill: #ebebff } 
		.s2 { fill: #d1d1ff } 
		.s3 { fill: #ffffff } 
		.s4 { opacity: .7;fill: #fff2e0 } 
		.s5 { fill: #ffa121 } 
		.s6 { opacity: .4;fill: #ffffff } 
		.s7 { fill: #3335cf } 
		.s8 { fill: #1b1b43 } 
		.s9 { fill: #c5c5ff } 
		.s10 { fill: #ffbc96 } 
		.s11 { fill: #d28572 } 
		.s12 { fill: #26289c } 
		.s13 { opacity: .3;fill: #1b1b43 } 
		.s14 { opacity: .2;fill: #fe5b52 } 
	</style>
	<g id="OBJECTS">
		<g id="&lt;Group&gt;">
			<g id="&lt;Group&gt;">
				<path id="&lt;Compound Path&gt;" class="s0" d="m590.9 1138.4l-1.7-1.8 10.8-10.3 1.8 1.8zm21.6-20.8l-1.7-1.8c3.5-3.4 7-7 10.5-10.6l1.8 1.7c-3.5 3.6-7 7.2-10.6 10.7zm20.9-21.7l-1.9-1.7c3.3-3.6 6.7-7.4 9.9-11.2l1.9 1.7c-3.2 3.8-6.6 7.6-9.9 11.2zm19.6-22.7l-1.9-1.6c3.1-3.8 6.3-7.7 9.3-11.7l2 1.5c-3.1 4-6.2 8-9.4 11.8zm18.5-23.7l-2-1.5c3-3.9 5.9-8 8.8-12.1l2.1 1.4c-3 4.1-5.9 8.2-8.9 12.2zm17.4-24.5l-2-1.4q4.2-6.2 8.2-12.5l2.1 1.4q-4.1 6.3-8.3 12.5zm137-17.3c-4.6 0-9.3-0.9-13.5-2.6l0.9-2.3c4 1.5 8.3 2.4 12.6 2.4 0.6-0.1 1.1-0.1 1.6-0.1l0.1 2.5c-0.6 0-1.2 0-1.7 0.1zm16.6-4.3l-1.3-2.2c4.2-2.4 7.6-5.8 10-10l2.2 1.2c-2.6 4.6-6.4 8.4-10.9 11zm-137.2-3.6l-2.2-1.3q4-6.4 7.8-12.8l2.2 1.2q-3.9 6.5-7.8 12.9zm94.5-3.5c-3.4-3.6-6.2-8-8.3-13l2.3-0.9c2 4.7 4.6 8.8 7.8 12.2zm57.7-18.8l-2.5-0.1 0.1-0.6c0-3.8-0.8-7.4-2.3-10.6q-0.5-1.3-1.2-2.5l2.2-1.2q0.7 1.3 1.3 2.6c1.6 3.5 2.5 7.6 2.5 11.7zm-135.9-2.6l-2-1.7c3.3-3.8 6.9-7.5 10.7-10.8l1.6 1.9c-3.7 3.2-7.2 6.8-10.3 10.6zm66-6.4c-0.3-2.4-0.4-4.8-0.4-7.2 0-2.7 0.1-5.4 0.5-8.1l2.5 0.3c-0.4 2.6-0.5 5.2-0.5 7.8 0 2.3 0.1 4.6 0.4 6.9zm-43.8-12.9l-1.3-2.2c4.3-2.6 8.8-4.9 13.5-7l1 2.3c-4.6 2-9 4.3-13.2 6.9zm98.1-2.6c-3.7-2.8-8-5.2-12.8-7.1l0.9-2.3c5.1 2 9.6 4.5 13.4 7.4zm-70.9-9.1l-0.7-2.4c4.9-1.4 9.9-2.4 14.9-3l0.3 2.5c-4.9 0.6-9.8 1.6-14.5 2.9zm44-2.1c-4.8-0.9-9.7-1.4-14.7-1.5v-2.5c5.2 0.1 10.3 0.6 15.1 1.5zm-21.3-2.5l-2.4-0.8c1.7-4.8 3.9-9.4 6.6-13.8l2.1 1.3c-2.5 4.3-4.7 8.7-6.3 13.3zm15.2-25l-1.8-1.7q1.1-1.2 2.3-2.3c2.7-2.8 5.8-5.4 9.1-7.8l1.5 2c-3.2 2.4-6.2 4.9-8.9 7.6q-1.1 1.1-2.2 2.2zm23.7-17.4l-1.1-2.3c4.5-2.2 9.3-4.1 14.1-5.6l0.7 2.4c-4.7 1.5-9.3 3.3-13.7 5.5zm28.2-9.2l-0.6-2.4c4.9-1.3 9.7-2.6 14.4-3.9l0.7 2.4c-4.7 1.3-9.6 2.6-14.5 3.9zm28.9-8.2l-0.7-2.4c4.8-1.5 9.6-3.1 14.2-4.7l0.8 2.3c-4.6 1.7-9.4 3.3-14.3 4.8zm28.4-10l-0.9-2.3c4.7-1.8 9.4-3.7 13.9-5.6l0.9 2.2c-4.5 2-9.2 3.9-13.9 5.7zm27.6-11.9l-1-2.2 13.5-6.6 1 2.3zm27-13.2l-1.1-2.2 13.5-6.6 1.1 2.3zm27-13.1l-1.1-2.3 13.5-6.5 1.1 2.2zm27-13.1l-1.1-2.2 13.5-6.6 1.1 2.2zm26.9-13.1l-1-2.2 13.4-6.6 1.1 2.3z"/>
				<path id="&lt;Path&gt;" class="s1" d="m1007.6 340.3c0 0.5 0 1 0.1 1.5h328.8c-0.9-27.1-24.5-48.8-53.4-48.8-9.3 0-18 2.2-25.6 6.1 0.4-21.1-9.7-41.3-28.4-52.1-28-16.2-64.7-5.2-81.8 24.6-5.2 9-8 18.7-8.7 28.3-13.7-6.2-30.6-10-49-10-45.3 0-82 22.6-82 50.4z"/>
				<path id="&lt;Compound Path&gt;" fill-rule="evenodd" class="s0" d="m460.7 1108.5h-271.1v-0.9c0.7-23 20.3-40.9 44.7-40.9 6.9 0 13.8 1.5 20 4.4 0.1-17.5 9.1-33.5 23.7-42 10.9-6.3 23.7-7.9 36.1-4.6 13.6 3.7 25 12.6 32.2 25.1 4 7 6.4 14.5 7.1 22.3 11.6-5.1 25.1-7.7 39.3-7.7 37.6 0 68.1 18.9 68.1 42.2 0 0.4 0 0.9 0 1.3zm-269.2-1.9h267.4q0-0.1 0-0.3c0-22.2-29.7-40.3-66.2-40.3-14.4 0-28.2 2.8-39.7 8.1l-1.3 0.6-0.1-1.4c-0.5-8-2.8-15.6-6.9-22.8-7-12.1-18-20.7-31.1-24.2-11.9-3.2-24.2-1.6-34.7 4.4-14.4 8.4-23.1 24.4-22.8 41.9l0.1 1.6-1.4-0.8c-6.3-3.2-13.4-4.9-20.6-4.9-22.9 0-41.5 16.7-42.7 38.1z"/>
			</g>
			<g id="&lt;Group&gt;">
				<g id="&lt;Clip Group&gt;">
					<path id="&lt;Path&gt;" class="s2" d="m951.1 790.3c8.9-28.4 36.9-50.3 67.5-52.6 30.7-2.3 62 15.1 75.4 41.8 16.3-0.1 32.3 8.9 40.3 22.7 7.9 13.8 7.3 31.7-1.5 45 19.5 3.3 36.9 16.1 45.5 33.3 8.6 17.1 8.1 38.2-1.2 55 21.3-10.9 48.7-9.9 69.2 2.5 20.5 12.4 33.4 35.7 32.7 59 13.3-20.8 38.8-33.9 64.2-32.7 25.3 1.2 49.5 16.4 60.8 38.4 11.9-35.6 43.7-64.4 81.2-73.6 37.6-9.2 79.8 1.5 107.9 27.4 42.3 6.6 73.1 52.5 62.1 92.5 22.8 18.9 34.5 49.6 29.7 78.3-4.7 28.6-25.8 54.2-53.6 65.2l-727.7-0.5-62-277.6z"/>
					<g id="&lt;Group&gt;" style="opacity: .8">
						<path id="&lt;Path&gt;" class="s3" d="m939.6 882.5c8.5-28.5 35.7-50.3 65.3-52.6 29.6-2.4 59.8 15 72.7 41.7 15.7-0.2 31.3 8.9 38.9 22.6 7.6 13.8 7.1 31.7-1.4 45 18.8 3.4 35.6 16.1 43.9 33.3 8.3 17.1 7.8 38.3-1.2 55 20.6-10.9 47-9.9 66.8 2.5 19.8 12.3 32.3 35.6 31.6 59 12.8-20.9 37.5-34 62-32.8 24.5 1.1 47.9 16.4 58.8 38.4 11.5-35.7 42.2-64.5 78.5-73.7 36.3-9.2 77 1.4 104.2 27.3 40.8 6.5 70.6 52.4 59.9 92.4 22.1 18.9 33.3 49.6 28.7 78.3-4.7 28.7-25 54.3-51.9 65.2l-703.1 0.1-59.7-277.5z"/>
					</g>
					<g id="&lt;Group&gt;">
						<path id="&lt;Path&gt;" class="s4" d="m1498.5 703.1c-210.6 198.1-360 251.5-548.1 270.6l-12.5 200 197.5 67.5c172.5-5 338.1-254.8 440.4-469 0 0-77.3-69.1-77.3-69.1z"/>
						<path id="&lt;Path&gt;" class="s5" d="m1528.2 705.7c-34.3 40.5-85.9 79.2-146.8 131.6l83.1-33.9c-10.2 16.9-25.1 40.5-33.4 50.7 19.2-8.9 50-28.3 60.2-38.7 0 14.4-17.3 38.5-24.9 51.7 44.3-38 84.7-84.3 97.7-125z"/>
						<path id="&lt;Path&gt;" class="s6" d="m1537.9 707.7c-20.3 26.9-50.6 52.7-86.4 87.6l48.5-23c-6.1 11.1-15 26.8-19.9 33.5 11.2-6 29.3-19 35.3-25.9-0.2 9.4-10.5 25.3-15 34 26.1-25.3 49.9-56 57.9-82.7z"/>
					</g>
					<path id="&lt;Path&gt;" class="s2" d="m1223.4 845.3c0.3 6.3 0 16.8-6.3 20.5-10.4 6-18.6-8.7-22.5-16-4.5-8.9-3.4-19.8 7-23.7 13.6-5.2 21.3 7.5 21.8 19.2z"/>
					<path id="&lt;Path&gt;" class="s2" d="m1718.5 1035.4c0.3 6.3 0 16.9-6.3 20.5-10.4 6-18.6-8.7-22.4-16-4.6-8.8-3.5-19.8 6.9-23.7 13.6-5.2 21.3 7.5 21.8 19.2z"/>
					<path id="&lt;Path&gt;" class="s2" d="m1176.6 774.5c0 4.8-3.9 8.7-8.7 8.7-4.8 0-8.8-3.9-8.8-8.7 0-4.8 4-8.8 8.8-8.8 4.8 0 8.7 4 8.7 8.8z"/>
					<path id="&lt;Path&gt;" class="s2" d="m1626.2 932.4c0 7.4-6 13.3-13.3 13.3-7.4 0-13.3-5.9-13.3-13.3 0-7.4 5.9-13.3 13.3-13.3 7.3 0 13.3 5.9 13.3 13.3z"/>
				</g>
				<g id="&lt;Group&gt;">
					<path id="&lt;Compound Path&gt;" fill-rule="evenodd" class="s0" d="m1691.2 1140.6h-642.6c-32.6 0-59.1-26.5-59.1-59.1v-392.2h760.8v392.2c0 32.6-26.5 59.1-59.1 59.1zm-699.2-448.8v389.7c0 31.2 25.4 56.6 56.6 56.6h642.6c31.2 0 56.6-25.4 56.6-56.6v-389.7z"/>
					<g id="&lt;Group&gt;">
						<path id="&lt;Compound Path&gt;" fill-rule="evenodd" class="s0" d="m1750.3 691.8h-760.8v-94.8c0-32.6 26.5-59.1 59.1-59.1h642.6c32.6 0 59.1 26.5 59.1 59.1zm-758.3-2.5h755.8v-92.4c0-31.2-25.4-56.6-56.6-56.6h-642.6c-31.2 0-56.6 25.4-56.6 56.6z"/>
					</g>
					<g id="&lt;Group&gt;">
						<path id="&lt;Path&gt;" class="s2" d="m1098.9 614.8c0 17.6-14.2 31.8-31.7 31.8-17.5 0-31.7-14.2-31.7-31.8 0-17.5 14.2-31.7 31.7-31.7 17.5 0 31.7 14.2 31.7 31.7z"/>
						<g id="&lt;Group&gt;">
							<path id="&lt;Compound Path&gt;" fill-rule="evenodd" class="s0" d="m1160.6 647.8c-18.2 0-33-14.8-33-33 0-18.1 14.8-32.9 33-32.9 18.2 0 33 14.8 33 32.9 0 18.2-14.8 33-33 33zm0-63.4c-16.8 0-30.5 13.6-30.5 30.4 0 16.8 13.7 30.5 30.5 30.5 16.8 0 30.5-13.7 30.5-30.5 0-16.8-13.7-30.4-30.5-30.4z"/>
						</g>
						<g id="&lt;Group&gt;">
							<path id="&lt;Compound Path&gt;" fill-rule="evenodd" class="s0" d="m1402 646.4h-126.3c-17.3 0-31.5-14.2-31.5-31.6 0-17.3 14.2-31.5 31.5-31.5h126.3c17.4 0 31.5 14.2 31.5 31.5 0 17.4-14.1 31.6-31.5 31.6zm-126.3-60.6c-16 0-29 13-29 29 0 16 13 29.1 29 29.1h126.3c16 0 29-13.1 29-29.1 0-16-13-29-29-29z"/>
						</g>
					</g>
				</g>
				<g id="&lt;Group&gt;">
					<g id="&lt;Group&gt;">
						<path id="&lt;Path&gt;" class="s7" d="m1659.8 470.1c-50.7 44.3-138 13.8-165.2 49.2l77.6 61.4z"/>
						<path id="&lt;Path&gt;" class="s2" d="m1494.6 519.3c-3.8 10.3-1.7 21.9 5.5 30.2l55 63 17.1-31.8z"/>
					</g>
					<g id="&lt;Group&gt;">
						<path id="&lt;Path&gt;" class="s7" d="m1774.5 561c-31.5 59.4 18.2 137.5-10 172l-77.5-61.4z"/>
						<path id="&lt;Path&gt;" class="s2" d="m1764.5 733c-9.2 6.1-20.9 6.8-30.7 1.6l-73.9-39.1 27.1-23.9z"/>
					</g>
					<path id="&lt;Path&gt;" class="s8" d="m1813.9 393.9l-69 25.4 60.2 47.6z"/>
					<path id="&lt;Path&gt;" class="s9" d="m1805.1 466.9c-9.7 109.3-90.4 211.2-188.4 267.9l-89.4-70.7c37.5-118 107.3-202.4 217.6-244.8z"/>
					<path id="&lt;Path&gt;" class="s7" d="m1527.3 664.1l-38.7 26.8 110.8 87.8 17.3-43.9z"/>
					<g id="&lt;Group&gt;">
						<path id="&lt;Path&gt;" class="s3" d="m1751.5 539.6c-14.2 17.9-40.3 21-58.3 6.8-17.9-14.3-21-40.3-6.7-58.3 14.2-18 40.2-21 58.2-6.8 18 14.3 21 40.3 6.8 58.3z"/>
						<path id="&lt;Compound Path&gt;" class="s0" d="m1722.1 543.2l-0.3-2.5c2.4-0.2 4.7-0.8 7-1.6l0.9 2.3c-2.5 0.9-5 1.6-7.6 1.8zm-7.8-0.2c-2.6-0.4-5.1-1.1-7.5-2.2l1-2.3c2.2 1 4.5 1.7 6.9 2.1zm22.2-5.4l-1.5-2.1c1.9-1.4 3.7-3 5.2-4.9l1.9 1.5c-1.6 2.1-3.5 3.9-5.6 5.5zm-36.3-1c-2.1-1.7-3.8-3.6-5.4-5.7l2.1-1.5c1.4 2 3 3.7 4.9 5.3zm45-9.2l-2.3-1.2c1.1-2.1 2-4.3 2.5-6.7l2.4 0.5c-0.5 2.6-1.4 5.1-2.6 7.4zm-54-3.5c-0.9-2.4-1.5-5-1.7-7.6l2.5-0.2c0.2 2.4 0.7 4.7 1.5 7zm54.8-11.6c-0.1-2.4-0.6-4.7-1.3-7l2.4-0.8c0.8 2.5 1.3 5.1 1.4 7.7zm-53.7-3.4l-2.4-0.5c0.4-2.5 1.2-5 2.4-7.4l2.2 1.1c-1 2.1-1.7 4.4-2.2 6.8zm49.3-10.1c-1.3-2-2.9-3.8-4.7-5.4l1.7-1.9c2 1.8 3.7 3.8 5.1 6zm-43.2-2.8l-1.9-1.6c1.7-2 3.7-3.8 5.8-5.2l1.4 2q-2.9 2.1-5.3 4.8zm32.6-6.7c-2.1-1-4.4-1.8-6.8-2.3l0.5-2.4c2.6 0.5 5.1 1.3 7.4 2.5zm-20.9-1.3l-0.8-2.4c2.5-0.8 5-1.4 7.6-1.5l0.2 2.5q-3.6 0.2-7 1.4z"/>
					</g>
					<path id="&lt;Path&gt;" class="s8" d="m1514.6 773.9l-1.9-1.6c-2.9-2.3-3.4-6.5-1.1-9.4l77.7-98.2c2.3-2.9 6.6-3.4 9.5-1.1l1.9 1.6c2.9 2.3 3.4 6.5 1.1 9.4l-77.7 98.2c-2.3 2.9-6.6 3.4-9.5 1.1z"/>
				</g>
			</g>
			<g id="&lt;Group&gt;">
				<path id="&lt;Compound Path&gt;" class="s0" d="m1652.4 1630h-15v-2.5h15zm-30 0h-15v-2.5h15zm-30 0h-15v-2.5h15zm-30 0h-15v-2.5h15zm-30 0h-15v-2.5h15zm-30 0h-15v-2.5h15zm-30 0h-15v-2.5h15zm-30 0h-15v-2.5h15zm-30 0h-15v-2.5h15zm-30 0h-15v-2.5h15zm-30 0c-5.2-0.1-10.3-0.9-15.2-2.6l0.9-2.4c4.6 1.6 9.4 2.4 14.3 2.5zm301.8 0l-0.1-2.5c4.9-0.2 9.7-1.2 14.3-2.9l0.8 2.3c-4.8 1.9-9.8 2.9-15 3.1zm-330.5-9.8c-4-3.2-7.6-6.9-10.5-11.1l2.1-1.5c2.7 4.1 6.1 7.6 10 10.6zm358.8-0.9l-1.6-1.9c3.8-3.1 7.1-6.7 9.7-10.8l2.1 1.3c-2.8 4.4-6.2 8.2-10.2 11.4zm-375.9-24.1c-1.2-4.3-1.8-8.7-1.8-13.1v-2.1h2.5v2.1c0 4.2 0.6 8.4 1.7 12.4zm392.2-1.3l-2.4-0.6c0.9-3.7 1.4-7.4 1.4-11.2v-3.4h2.5v3.4c0 4-0.5 7.9-1.5 11.8zm-391.5-28.9h-2.5v-15h2.5zm393-1.3h-2.5v-15h2.5zm-393-28.7h-2.5v-15h2.5zm393-1.3h-2.5v-15h2.5zm-393-28.7h-2.5v-15h2.5zm393-1.3h-2.5v-15h2.5zm-393-28.7h-2.5v-15h2.5zm393-1.3h-2.5v-15h2.5zm-393-28.7h-2.5v-15h2.5zm393-1.3h-2.5v-15h2.5zm-393-28.7h-2.5v-10q0-2.5 0.3-5.1l2.5 0.3q-0.3 2.4-0.3 4.8zm393-1.3h-2.5v-8.7q0-3.1-0.4-6.1l2.4-0.3q0.5 3.2 0.5 6.4zm-388.9-27.5l-2.3-1.1c2.2-4.6 5-8.9 8.5-12.7l1.9 1.7c-3.4 3.6-6.1 7.7-8.1 12.1zm381.7-1.2c-2.1-4.3-5-8.3-8.4-11.8l1.8-1.8c3.6 3.7 6.6 7.9 8.9 12.5zm-362.2-19.8l-1.2-2.2c4.5-2.5 9.4-4.2 14.4-5.1l0.5 2.4c-4.8 0.9-9.4 2.5-13.7 4.9zm342-0.6c-4.3-2.2-9-3.7-13.8-4.5l0.4-2.4c5.1 0.7 10 2.3 14.6 4.6zm-28.7-4.9h-15v-2.5h15zm-30 0h-15v-2.5h15zm-30 0h-15v-2.5h15zm-30 0h-15v-2.5h15zm-30 0h-15v-2.5h15zm-30 0h-15v-2.5h15zm-30 0h-15v-2.5h15zm-30 0h-15v-2.5h15zm-30 0h-15v-2.5h15zm-30 0h-15v-2.5h15z"/>
				<path id="&lt;Path&gt;" class="s0" d="m1625 1586.7h-319.1c-20.4 0-36.9-16.6-36.9-37v-204c0-20.4 16.5-36.9 36.9-36.9h319.1c20.4 0 36.9 16.5 36.9 36.9v204c0 20.4-16.5 37-36.9 37z"/>
				<g id="&lt;Group&gt;">
					<path id="&lt;Path&gt;" class="s3" d="m1379.8 1557.5h-42.5v-86.4h42.5z"/>
					<path id="&lt;Path&gt;" class="s3" d="m1451.1 1557.5h-42.6v-83.6h42.6z"/>
					<path id="&lt;Path&gt;" class="s3" d="m1522.3 1557.5h-42.5v-127.3h42.5z"/>
					<path id="&lt;Path&gt;" class="s3" d="m1593.6 1557.5h-42.6v-164.7h42.6z"/>
				</g>
				<path id="&lt;Path&gt;" class="s3" d="m1579.6 1357.9h-228.3v-10h228.3z"/>
			</g>
			<g id="&lt;Group&gt;">
				<g id="&lt;Group&gt;">
					<g id="&lt;Group&gt;">
						<path id="&lt;Path&gt;" class="s5" d="m656.1 1037.5c-7.2-25.1-22.5-47.1-43.5-62.6l-8.5-6.2 7.2 148.3 55.4-42.9z"/>
						<path id="&lt;Path&gt;" class="s10" d="m834.2 1216.7l-12.3-24.1c-3.2-6.1-8.7-10.7-15.3-12.5l-36.2-10-93.2-59.5-10.5-36.5-55.4 42.9 0.5 10.4c1 20.8 13.8 39.3 33 47.6l90.5 39 43 1c13.8 4.8 18.6 16.7 27.2 12.4 3.2-1.6-9.3-22.2-9.3-22.2l20.8 22.9z"/>
						<path id="&lt;Path&gt;" class="s11" d="m666.1 1125.9l-2.2-1.9 12.2-14.3 2.2 1.8z"/>
					</g>
					<g id="&lt;Group&gt;">
						<path id="&lt;Path&gt;" class="s12" d="m672.1 1276.7l67.8-6c44.1-3.9 82.5 31.8 84.7 78.6l15.3 333.8-93.5 2.9z"/>
						<g id="&lt;Group&gt;">
							<path id="&lt;Path&gt;" class="s8" d="m753.9 1682.7l2.9 92.2h138.5l-68.3-56.8-4.3-44.5z"/>
							<path id="&lt;Path&gt;" class="s3" d="m799.6 1742.8l-3.5-4.5 29.1-22.5 3.5 4.5z"/>
						</g>
					</g>
					<g id="&lt;Group&gt;">
						<g id="&lt;Group&gt;">
							<path id="&lt;Path&gt;" class="s2" d="m722.4 1682.7l2.8 92.2h138.6l-68.3-56.8-4.3-44.5z"/>
							<path id="&lt;Path&gt;" class="s3" d="m768.1 1742.8l-3.5-4.5 29.1-22.5 3.5 4.5z"/>
						</g>
						<path id="&lt;Path&gt;" class="s7" d="m825.6 1691.8h-114.7l-81.7-251.5-11.5-35.2-163.4-0.7c-10-0.1-19.7-4.8-27.9-11.7-17.4-14.6-25.4-37.7-22.2-60.2l14.3-102.2 242.8 31.5c46 6 83.2 40.5 92.6 85.9z"/>
						<path id="&lt;Path&gt;" class="s8" d="m651.4 1405.1l-22.2 35.2-11.5-35.2z"/>
					</g>
					<g id="&lt;Group&gt;">
						<path id="&lt;Path&gt;" class="s5" d="m621.4 1211.8q-1.8 7.1-3.7 14.2l-8.6 35.1-113.2-4.7-81.5-3.4c-21.6-0.9-37.3-20.9-32.9-42.1l38-182.9c4.9-31.1 30.2-55.1 61.5-58.3l93-9.6 30.1 8.6c29.4 15.8 29.4 44.4 30.8 63.1 6.2 81.9-1.4 131.5-13.5 180z"/>
						<path id="&lt;Path&gt;" class="s13" d="m544.6 1205.9c-1.1 4.7 74.4 15.3 73.1 20.1l-8.6 35.1-113.2-4.7c-39.5-29.8-54.4-94.8-68.8-176.1z"/>
						<path id="&lt;Path&gt;" class="s8" d="m522.1 1013c5 5.3 10.6 10 17 13.4 6.2 3.5 13.1 6 20.2 6.9 7 0.9 14.4 0.3 20.6-3.1 6.2-3.1 10.3-9.7 11-16.9l1.1 0.1c0 3.8-1 7.6-2.8 10.9-1.9 3.4-4.8 6.2-8.1 8.1-6.8 3.9-14.8 4.6-22.2 3.7-7.5-1.1-14.7-3.7-21.1-7.6-6.4-3.8-12-8.9-16.5-14.8z"/>
						<path id="&lt;Path&gt;" class="s8" d="m637.4 1124.8l-2.1-0.2c2.1-28.8 0-64.3-6.2-105.3l2.1-0.3c6.2 41.2 8.3 76.8 6.2 105.8z"/>
					</g>
					<g id="&lt;Group&gt;">
						<path id="&lt;Path&gt;" class="s8" d="m829.9 1247.5h-106.6v-21h106.6z"/>
						<path id="&lt;Path&gt;" class="s0" d="m1014.3 1247.5h-214.1l98.5-188.2h214z"/>
					</g>
					<g id="&lt;Group&gt;">
						<path id="&lt;Path&gt;" class="s8" d="m545.7 809.6c-25.1-24.7-72.4-14.3-71.6 27.3-51.6 13.6-54.5 70.2-33.7 99.2l17.9 1.4 3.9-21.1 10.4 21.5 50.2 3.2z"/>
						<path id="&lt;Path&gt;" class="s10" d="m587.6 902.1v78.9q0 1.1 0 2.1c-1.3 16.3-17 27.8-33.1 23.6-23.7-6.1-40.2-27.5-40-52l0.4-52.6z"/>
						<path id="&lt;Path&gt;" class="s8" d="m587.6 936.2v44.8q0 1.1 0 2.1c-21.2-3.4-45.6-27.9-51.6-54.5z"/>
						<path id="&lt;Path&gt;" class="s10" d="m630.4 907.9c-1.1 6.3-2.6 12.7-4.5 18.8-6.3 20.1-17.6 36.7-37.9 33.8-47.7-6.8-74.2-55.9-74.2-55.9l32.6-37.3 21.9-29.4 65.5 28.3c0 0 0.4 20.1-3.4 41.7z"/>
						<path id="&lt;Path&gt;" class="s8" d="m527.9 892c20.9-0.6 37.1-11.3 44-41.5 0 0 48.7 42 72.6 19.6 20-18.8-13.9-62.1-70.1-67.3-20.5-1.8-40.9 4.6-56.9 17.4-27.2 21.8-29.8 72.6-4.4 90.1z"/>
						<path id="&lt;Path&gt;" class="s5" d="m503.4 839c-1.3-4.9-0.3-10.4 1.9-15.1 2.2-4.8 5.7-8.9 9.8-12.1 4.1-3.2 9-5.5 14.1-6.6 5-1 10.4-0.8 15.1 1.2-4.9 1.6-9 3.2-13 5.2-3.9 2.1-7.5 4.4-10.9 7-3.4 2.6-6.6 5.6-9.4 8.9-2.8 3.3-5.3 6.9-7.6 11.5z"/>
						<g id="&lt;Group&gt;">
							<path id="&lt;Path&gt;" class="s10" d="m536.8 889.3c4 10.1 0.5 21-7.8 24.4-8.4 3.3-18.4-2.2-22.5-12.3-4-10.1-0.5-21 7.8-24.3 8.4-3.3 18.4 2.1 22.5 12.2z"/>
							<path id="&lt;Path&gt;" class="s8" d="m521.7 906.2c0.3-3.5 0.3-6.8-0.7-9.8-1-3.1-2.9-5.7-5.1-8.5l0.7-0.8c3.2 1.6 6 4.7 7.1 8.4 1.2 3.7 0.7 7.8-1 11z"/>
						</g>
						<g id="&lt;Group&gt;">
							<path id="&lt;Path&gt;" class="s8" d="m600 895.6c0 3-2.2 5.4-4.9 5.4-2.7 0-4.8-2.4-4.8-5.4 0-2.9 2.1-5.3 4.8-5.3 2.7 0 4.9 2.4 4.9 5.3z"/>
							<path id="&lt;Path&gt;" class="s8" d="m625.4 899.9c-0.3 2.6-2.5 4.5-4.9 4.2-2.4-0.3-4-2.7-3.7-5.3 0.3-2.6 2.5-4.5 4.9-4.2 2.3 0.3 4 2.6 3.7 5.3z"/>
							<path id="&lt;Path&gt;" class="s8" d="m599.7 882.2c0.2 2.5-3.8 2.7-9.7 2.9-5.9 0.2-10 2-10 0.4-0.1-1.6 4.3-5.6 10.1-6.6 6-1 9.4 0.3 9.6 3.3z"/>
							<path id="&lt;Path&gt;" class="s8" d="m618.6 884.6c-0.5 2.5 2.5 3.1 6.8 3.9 4.4 0.7 7.2 2.9 7.4 1.4 0.2-1.6-2.5-6.1-6.7-7.6-4.4-1.6-7-0.6-7.5 2.3z"/>
							<path id="&lt;Path&gt;" class="s8" d="m611.5 904.3c1.2 1.4 2.4 2.6 3.7 3.8l1.9 1.8c0.7 0.6 1.4 1.3 2 2.3 0.4 0.5 0.6 1.1 0.7 1.9 0 0.7-0.2 1.4-0.5 2-0.7 1.1-1.5 1.8-2.3 2.3-1.7 1.2-3.6 1.6-5.4 2l-0.4-1.1c1.5-1 3.1-1.8 4.3-2.9 0.5-0.5 1.1-1.1 1.3-1.6 0.2-0.5 0.2-0.6-0.1-1.2-0.6-1-2.3-2.4-3.3-3.9-1.2-1.4-2.2-3-2.8-4.9z"/>
							<path id="&lt;Path&gt;" class="s8" d="m587.3 922c2.9 3.3 6 6.4 9.6 8.4 3.7 2 7.8 2.5 12.2 2.1l0.3 1c-2.1 1-4.5 1.5-6.9 1.4-2.4-0.2-4.8-0.9-6.9-2-4.3-2.4-7.4-6.2-9.3-10.3z"/>
							<path id="&lt;Path&gt;" class="s14" d="m581.9 907.1c0 6.5-5.3 11.8-11.8 11.8-6.5 0-11.8-5.3-11.8-11.8 0-6.6 5.3-11.8 11.8-11.8 6.5 0 11.8 5.2 11.8 11.8z"/>
							<path id="&lt;Path&gt;" class="s14" d="m630.4 907.9c-1.1 6.3-2.6 12.7-4.5 18.8-1.9-2.1-3-4.8-3-7.8 0-5 3.1-9.2 7.5-11z"/>
						</g>
					</g>
					<g id="&lt;Group&gt;">
						<g id="&lt;Group&gt;">
							<path id="&lt;Path&gt;" class="s5" d="m495.4 1047.8l-68.3 32.5 21.4 50.8 71.7-33.1z"/>
							<path id="&lt;Path&gt;" class="s9" d="m748.5 1223.9c-1.9-0.9-3.1-1.5-3.1-1.5l0.7-1.4c0 0 1.3 0.6 3.1 1.6z"/>
							<path id="&lt;Path&gt;" class="s10" d="m776.8 1231c-2.2 4.4-19.1-3.4-27-7.2 6.1 3.4 16.7 10 12 13.7-3.8 2.8-12.1-3.3-39.3-14.6 4.1 1.9 28.4 13.5 22.3 17.9-6.7 4.8-35.3-5.7-35.3-5.7l-24.9 13.3h-28.7l-103.1 0.7c-6.5 0-12.9-0.8-19.1-2.4-12.2-3.1-23.8-9.2-33.5-17.4-6.2-5.1-11.5-11.2-16-17.8-3.3-5-6.1-10.4-8.5-16l-27.2-64.4 71.7-33.1 37.3 75.9 123.3 26.8 34.4-8.6c7.4-1.9 17.9 1.2 24.4 5.2 15.8 9.7 39.3 29.5 37.2 33.7z"/>
						</g>
						<path id="&lt;Path&gt;" class="s14" d="m535.6 1236c0 3.8-0.7 7.4-1.9 10.7-12.2-3.1-23.8-9.2-33.5-17.4-6.2-5.1-11.5-11.2-16-17.8 5.5-4.4 12.3-7 19.8-7 17.5 0 31.6 14.1 31.6 31.5z"/>
						<path id="&lt;Path&gt;" class="s11" d="m680.6 1200.1c8.6-2.8 17.2-5.3 26.1-7.1 4.4-0.9 8.9-1.7 13.4-1.9q3.4-0.2 6.9 0.2c1.2 0.2 2.3 0.5 3.5 0.8 1.1 0.3 2.1 0.8 3.2 1.2 8.4 3.8 15.7 9.2 22.8 14.8 7.1 5.7 13.7 11.7 20.2 18l0.3 0.3 0.1 0.4c0.2 1.3 0 2.6-0.7 3.8-0.5 0.6-1 1.2-1.6 1.4-0.6 0.4-1.2 0.6-1.8 0.6-2.3 0.4-4.4-0.1-6.4-0.6-4-1.1-7.5-2.9-11.1-4.7-3.5-1.8-7-3.8-10.3-5.9-3.5-2-6.7-4.3-10-6.4l1.5-2.4c5.9 3.4 11.6 7.1 17 11.2 2.7 2.1 5.4 4.3 7.7 7.1 0.6 0.7 1.1 1.5 1.5 2.5 0.2 0.5 0.3 1.1 0.3 1.8 0 0.7-0.2 1.4-0.7 1.9-0.9 1.1-2 1.4-2.9 1.7-1 0.2-1.9 0.3-2.8 0.3l-0.2 0.1-0.3-0.2-31.2-13 1-2.2c4.9 2.3 9.6 4.7 14.2 7.7 2.2 1.6 4.5 3 6.2 5.8 0.4 0.7 0.6 1.7 0.2 2.7-0.4 1-1.1 1.6-1.8 1.9-1.5 0.7-2.9 0.9-4.3 1-5.6 0.1-10.8-1.2-16-2.5q-7.8-2.1-15.3-4.8l0.4-1.1c5 1.7 10.1 3.2 15.3 4.4 5.1 1.2 10.4 2.3 15.5 2.1 2.4-0.1 5.3-1.2 4.2-2.8-1.2-1.9-3.5-3.5-5.6-4.9-4.4-2.8-9.2-5.2-14-7.3l0.9-2.2 31.3 12.8-0.6-0.1c0.8-0.1 1.6-0.2 2.2-0.4 0.7-0.1 1.3-0.4 1.5-0.7 0.4-0.1-0.2-1.7-1.1-2.8-2-2.4-4.6-4.6-7.3-6.6-5.3-4-11-7.6-16.7-11l1.5-2.4c3.3 2.1 6.5 4.4 9.8 6.4 3.3 2.1 6.7 4 10.2 5.9 3.4 1.7 6.9 3.5 10.5 4.5 1.8 0.5 3.7 0.9 5.2 0.6l0.6-0.1c0.1-0.1 0.2-0.2 0.4-0.2 0.3-0.1 0.4-0.4 0.6-0.5 0.3-0.5 0.4-1.3 0.3-1.8l0.4 0.6c-6.3-6.2-13-12.2-19.9-17.9-6.9-5.6-14.1-11.1-22-14.8l-3.1-1.2c-1-0.3-2-0.5-3.1-0.8q-3.2-0.4-6.5-0.2c-4.4 0.2-8.8 0.8-13.2 1.6-8.8 1.6-17.5 3.9-26 6.5z"/>
						<path id="&lt;Path&gt;" class="s8" d="m449 1132.1l-0.9-2 70.7-32.6-29.5-68.9 2-0.9 30.3 70.9z"/>
					</g>
				</g>
				<g id="&lt;Group&gt;">
					<path id="&lt;Path&gt;" class="s8" d="m459.1 1756.8h-3.8v-323h3.8z"/>
					<path id="&lt;Path&gt;" class="s2" d="m547.5 1448.1h-180.6c-12.2 0-22.2-9.9-22.2-22.2 0-12.2 10-22.2 22.2-22.2h180.6c12.3 0 22.2 10 22.2 22.2 0 12.3-9.9 22.2-22.2 22.2z"/>
					<path id="&lt;Path&gt;" class="s2" d="m533.2 1777.8h-151.9v-3.7c0-18.4 14.9-33.4 33.4-33.4h85.1c18.4 0 33.4 15 33.4 33.4z"/>
				</g>
				<g id="&lt;Group&gt;">
					<g id="&lt;Group&gt;">
						<path id="&lt;Path&gt;" class="s8" d="m992.6 1776.6l-320.1-507.4 3.2-2 320.1 507.4z"/>
						<path id="&lt;Path&gt;" class="s8" d="m675.7 1776.6l-3.2-2 320.1-507.4 3.2 2z"/>
					</g>
					<path id="&lt;Path&gt;" class="s2" d="m1114.6 1289.8h-560.9v-42.3h560.9z"/>
				</g>
			</g>
			<g id="&lt;Group&gt;">
				<path id="&lt;Compound Path&gt;" fill-rule="evenodd" class="s0" d="m600.7 573.1c-64.6 0-117.2-52.6-117.2-117.2 0-64.6 52.6-117.2 117.2-117.2 64.7 0 117.3 52.6 117.3 117.2 0 64.6-52.6 117.2-117.3 117.2zm0-231.9c-63.2 0-114.7 51.4-114.7 114.7 0 63.2 51.5 114.7 114.7 114.7 63.3 0 114.8-51.5 114.8-114.7 0-63.3-51.5-114.7-114.8-114.7z"/>
				<g id="&lt;Group&gt;">
					<path id="&lt;Path&gt;" class="s1" d="m807.5 410c0 70.4-57.1 127.5-127.5 127.5-70.4 0-127.5-57.1-127.5-127.5 0-70.5 57.1-127.6 127.5-127.6 70.4 0 127.5 57.1 127.5 127.6z"/>
					<path id="&lt;Path&gt;" class="s8" d="m680 412.4l-70.7-55.4 2.4-3 68.3 53.5 38-32.2 2.5 2.9z"/>
				</g>
			</g>
			<g id="&lt;Group&gt;">
				<g id="&lt;Group&gt;">
					<path id="&lt;Path&gt;" class="s3" d="m349 685h-64.7c-10.4 0-18.9 8.4-18.9 18.9v64.7c0 10.5 8.5 18.9 18.9 18.9h46.2l19.9 27.5v-27.6c9.8-0.7 17.5-8.8 17.5-18.8v-64.7c0-10.5-8.4-18.9-18.9-18.9z"/>
					<path id="&lt;Compound Path&gt;" fill-rule="evenodd" class="s0" d="m351.7 818.9l-21.8-30.1h-45.6c-11.1 0-20.1-9.1-20.1-20.2v-64.7c0-11.1 9-20.1 20.1-20.1h64.7c11.1 0 20.2 9 20.2 20.1v64.7c0 10.1-7.6 18.7-17.5 20zm-67.4-132.6c-9.7 0-17.6 7.9-17.6 17.6v64.7c0 9.7 7.9 17.7 17.6 17.7h46.8l18.1 24.8v-24.8l1.1-0.1c9.2-0.7 16.4-8.4 16.4-17.6v-64.7c0-9.7-7.9-17.6-17.7-17.6z"/>
				</g>
				<path id="&lt;Path&gt;" class="s0" d="m315.3 769.6l-25.9-37.5 6.2-4.2 19.1 27.5 28.7-51.4 6.5 3.7z"/>
			</g>
			<path id="&lt;Path&gt;" class="s8" d="m1776.4 1777.8h-1536.4v-3.8h1536.4z"/>
		</g>
	</g>
</svg>