<svg width="232" height="40" viewBox="0 0 232 40" fill="none" xmlns="http://www.w3.org/2000/svg">
<path d="M21.575 17.25L33.975 35H24.225L16.6 23.475L9.22501 35H0.225006L11.925 17.25L1.30001 2.00001H10.8L16.9 11.5L22.925 2.00001H32.025L21.575 17.25ZM46.9164 29.625C47.8664 29.625 48.6497 29.4667 49.2664 29.15C49.8831 28.8167 50.2997 28.55 50.5164 28.35L53.9914 33.5C53.7247 33.7167 53.2664 34 52.6164 34.35C51.9664 34.6833 51.1497 34.975 50.1664 35.225C49.1997 35.475 48.0914 35.6 46.8414 35.6C44.4914 35.6 42.4247 35.1583 40.6414 34.275C38.8581 33.375 37.4664 32.1083 36.4664 30.475C35.4831 28.8417 34.9914 26.925 34.9914 24.725C34.9914 22.5083 35.4831 20.5917 36.4664 18.975C37.4664 17.3583 38.8581 16.1083 40.6414 15.225C42.4247 14.325 44.4914 13.875 46.8414 13.875C48.0747 13.875 49.1747 14.0083 50.1414 14.275C51.1247 14.525 51.9497 14.8167 52.6164 15.15C53.2831 15.4667 53.7497 15.7417 54.0164 15.975L50.4664 21.175C50.3497 21.0583 50.1331 20.8917 49.8164 20.675C49.5164 20.4583 49.1247 20.2667 48.6414 20.1C48.1581 19.9333 47.5831 19.85 46.9164 19.85C46.0997 19.85 45.3331 20.0583 44.6164 20.475C43.9164 20.8917 43.3497 21.4667 42.9164 22.2C42.4831 22.9333 42.2664 23.775 42.2664 24.725C42.2664 25.675 42.4831 26.525 42.9164 27.275C43.3497 28.0083 43.9164 28.5833 44.6164 29C45.3331 29.4167 46.0997 29.625 46.9164 29.625ZM63.1305 26.35C63.1805 27.0833 63.4138 27.7333 63.8305 28.3C64.2471 28.8667 64.8221 29.3167 65.5555 29.65C66.3055 29.9667 67.1888 30.125 68.2055 30.125C69.1721 30.125 70.0388 30.025 70.8055 29.825C71.5888 29.625 72.2638 29.375 72.8305 29.075C73.4138 28.775 73.8638 28.4667 74.1805 28.15L77.1305 32.85C76.7138 33.3 76.1221 33.7417 75.3555 34.175C74.6055 34.5917 73.6138 34.9333 72.3805 35.2C71.1471 35.4667 69.5888 35.6 67.7055 35.6C65.4388 35.6 63.4221 35.175 61.6555 34.325C59.8888 33.475 58.4971 32.225 57.4805 30.575C56.4638 28.925 55.9555 26.9083 55.9555 24.525C55.9555 22.525 56.3888 20.725 57.2555 19.125C58.1388 17.5083 59.4138 16.2333 61.0805 15.3C62.7471 14.35 64.7555 13.875 67.1055 13.875C69.3388 13.875 71.2721 14.2833 72.9055 15.1C74.5555 15.9167 75.8221 17.1333 76.7055 18.75C77.6055 20.35 78.0555 22.35 78.0555 24.75C78.0555 24.8833 78.0471 25.15 78.0305 25.55C78.0305 25.95 78.0138 26.2167 77.9805 26.35H63.1305ZM70.9055 22.375C70.8888 21.8417 70.7471 21.3167 70.4805 20.8C70.2138 20.2667 69.8138 19.8333 69.2805 19.5C68.7471 19.15 68.0638 18.975 67.2305 18.975C66.3971 18.975 65.6888 19.1417 65.1055 19.475C64.5388 19.7917 64.1055 20.2083 63.8055 20.725C63.5055 21.2417 63.3388 21.7917 63.3055 22.375H70.9055ZM89.5828 35H81.9578V0.600006H89.5828V35ZM100.533 26.35C100.583 27.0833 100.816 27.7333 101.233 28.3C101.649 28.8667 102.224 29.3167 102.958 29.65C103.708 29.9667 104.591 30.125 105.608 30.125C106.574 30.125 107.441 30.025 108.208 29.825C108.991 29.625 109.666 29.375 110.233 29.075C110.816 28.775 111.266 28.4667 111.583 28.15L114.533 32.85C114.116 33.3 113.524 33.7417 112.758 34.175C112.008 34.5917 111.016 34.9333 109.783 35.2C108.549 35.4667 106.991 35.6 105.108 35.6C102.841 35.6 100.824 35.175 99.0578 34.325C97.2911 33.475 95.8995 32.225 94.8828 30.575C93.8661 28.925 93.3578 26.9083 93.3578 24.525C93.3578 22.525 93.7911 20.725 94.6578 19.125C95.5411 17.5083 96.8161 16.2333 98.4828 15.3C100.149 14.35 102.158 13.875 104.508 13.875C106.741 13.875 108.674 14.2833 110.308 15.1C111.958 15.9167 113.224 17.1333 114.108 18.75C115.008 20.35 115.458 22.35 115.458 24.75C115.458 24.8833 115.449 25.15 115.433 25.55C115.433 25.95 115.416 26.2167 115.383 26.35H100.533ZM108.308 22.375C108.291 21.8417 108.149 21.3167 107.883 20.8C107.616 20.2667 107.216 19.8333 106.683 19.5C106.149 19.15 105.466 18.975 104.633 18.975C103.799 18.975 103.091 19.1417 102.508 19.475C101.941 19.7917 101.508 20.2083 101.208 20.725C100.908 21.2417 100.741 21.7917 100.708 22.375H108.308ZM126.335 35H118.735V14.475H126.335V17.65H126.21C126.343 17.2667 126.668 16.7833 127.185 16.2C127.702 15.6 128.427 15.0667 129.36 14.6C130.293 14.1167 131.435 13.875 132.785 13.875C133.735 13.875 134.61 14.025 135.41 14.325C136.21 14.6083 136.793 14.8833 137.16 15.15L134.21 21.325C133.977 21.0417 133.56 20.75 132.96 20.45C132.377 20.1333 131.643 19.975 130.76 19.975C129.743 19.975 128.902 20.2333 128.235 20.75C127.585 21.2667 127.102 21.8917 126.785 22.625C126.485 23.3583 126.335 24.05 126.335 24.7V35ZM154.597 35V31.675C154.447 32.0083 154.064 32.4917 153.447 33.125C152.847 33.7583 152.047 34.3333 151.047 34.85C150.047 35.35 148.881 35.6 147.547 35.6C145.547 35.6 143.797 35.1167 142.297 34.15C140.797 33.1667 139.631 31.8583 138.797 30.225C137.964 28.575 137.547 26.75 137.547 24.75C137.547 22.75 137.964 20.9333 138.797 19.3C139.631 17.65 140.797 16.3333 142.297 15.35C143.797 14.3667 145.547 13.875 147.547 13.875C148.831 13.875 149.956 14.0833 150.922 14.5C151.889 14.9 152.672 15.3833 153.272 15.95C153.872 16.5 154.289 17.0083 154.522 17.475V14.475H162.072V35H154.597ZM144.997 24.75C144.997 25.6833 145.214 26.525 145.647 27.275C146.081 28.0083 146.656 28.5833 147.372 29C148.106 29.4167 148.914 29.625 149.797 29.625C150.714 29.625 151.522 29.4167 152.222 29C152.922 28.5833 153.472 28.0083 153.872 27.275C154.289 26.525 154.497 25.6833 154.497 24.75C154.497 23.8167 154.289 22.9833 153.872 22.25C153.472 21.5 152.922 20.9167 152.222 20.5C151.522 20.0667 150.714 19.85 149.797 19.85C148.914 19.85 148.106 20.0667 147.372 20.5C146.656 20.9167 146.081 21.5 145.647 22.25C145.214 22.9833 144.997 23.8167 144.997 24.75ZM165.145 14.475H168.645V6.05001H176.17V14.475H180.77V20.725H176.17V26.45C176.17 27.3 176.295 27.9917 176.545 28.525C176.795 29.0417 177.253 29.3 177.92 29.3C178.37 29.3 178.753 29.2 179.07 29C179.387 28.8 179.578 28.6667 179.645 28.6L182.245 34C182.128 34.1 181.762 34.2833 181.145 34.55C180.545 34.8167 179.778 35.0583 178.845 35.275C177.912 35.4917 176.87 35.6 175.72 35.6C173.67 35.6 171.978 35.025 170.645 33.875C169.312 32.7083 168.645 30.9167 168.645 28.5V20.725H165.145V14.475ZM195.509 35.6C193.259 35.6 191.259 35.1417 189.509 34.225C187.776 33.2917 186.409 32.0167 185.409 30.4C184.426 28.7667 183.934 26.9 183.934 24.8C183.934 22.7 184.426 20.8333 185.409 19.2C186.409 17.55 187.776 16.25 189.509 15.3C191.259 14.35 193.259 13.875 195.509 13.875C197.759 13.875 199.742 14.35 201.459 15.3C203.176 16.25 204.517 17.55 205.484 19.2C206.451 20.8333 206.934 22.7 206.934 24.8C206.934 26.9 206.451 28.7667 205.484 30.4C204.517 32.0167 203.176 33.2917 201.459 34.225C199.742 35.1417 197.759 35.6 195.509 35.6ZM195.509 29.35C196.376 29.35 197.126 29.1583 197.759 28.775C198.392 28.3917 198.884 27.85 199.234 27.15C199.584 26.45 199.759 25.6583 199.759 24.775C199.759 23.875 199.584 23.075 199.234 22.375C198.884 21.675 198.392 21.125 197.759 20.725C197.126 20.325 196.376 20.125 195.509 20.125C194.642 20.125 193.884 20.325 193.234 20.725C192.601 21.125 192.101 21.675 191.734 22.375C191.384 23.075 191.209 23.875 191.209 24.775C191.209 25.6583 191.384 26.45 191.734 27.15C192.101 27.85 192.601 28.3917 193.234 28.775C193.884 29.1583 194.642 29.35 195.509 29.35ZM217.839 35H210.239V14.475H217.839V17.65H217.714C217.847 17.2667 218.172 16.7833 218.689 16.2C219.206 15.6 219.931 15.0667 220.864 14.6C221.797 14.1167 222.939 13.875 224.289 13.875C225.239 13.875 226.114 14.025 226.914 14.325C227.714 14.6083 228.297 14.8833 228.664 15.15L225.714 21.325C225.481 21.0417 225.064 20.75 224.464 20.45C223.881 20.1333 223.147 19.975 222.264 19.975C221.247 19.975 220.406 20.2333 219.739 20.75C219.089 21.2667 218.606 21.8917 218.289 22.625C217.989 23.3583 217.839 24.05 217.839 24.7V35Z" fill="white"/>
<path d="M226.5 40C229.538 40 232 37.5376 232 34.5C232 31.4624 229.538 29 226.5 29C223.462 29 221 31.4624 221 34.5C221 37.5376 223.462 40 226.5 40Z" fill="#168A13"/>
</svg>
